<svg width="0" height="0" class="hidden">
  <symbol fill="none" xmlns="http://www.w3.org/2000/svg" viewBox="0 0 240 103" id="4x4">
    <path d="M220.312 32.1789V46.0107C220.312 50.5406 220.729 54.9313 221.499 59.1241C221.836 60.9346 223.434 62.232 225.274 62.232H235.03C236.907 62.232 238.49 60.8833 238.827 59.0361C239.59 54.8653 240 50.504 240 46.0107V32.1789C240 27.6856 239.59 23.3169 238.827 19.1534C238.49 17.3136 236.907 15.9575 235.03 15.9575H225.274C223.434 15.9575 221.829 17.2549 221.499 19.0655C220.722 23.2582 220.312 27.6563 220.312 32.1789Z" fill="#009993"></path>
    <path d="M219.842 60.6487L217.05 59.5052C217.951 49.7123 218.157 39.8754 217.629 30.0605C217.504 27.7369 216.867 25.9117 215.005 25.9117H207.873L201.972 11.0537C199.934 5.91534 195.052 2.38959 189.533 2.0744C176.236 1.29742 146.945 0 100.253 0C96.9471 0 96.0016 0 88.6422 8.75206L72.7727 27.6342C40.5352 27.5829 12.6664 26.9819 5.27773 35.9758C4.4421 42.4629 4.9772 50.1228 6.0034 55.8475L1.94989 56.9544C0.755098 57.2769 -0.0585361 58.3911 -0.00722583 59.6225L0.154035 63.676C0.220005 65.3033 1.10694 66.7839 2.51431 67.6049L13.9272 74.2899C15.9869 65.5598 19.1535 57.2549 23.2876 49.551C24.8049 46.7216 27.7003 44.8891 30.9109 44.7719C37.7131 44.5226 44.5154 44.354 51.325 44.2734C54.6382 44.2294 57.8634 45.3656 60.4289 47.4693C62.5473 49.2065 64.5924 51.0244 66.5641 52.9229C68.8658 55.1365 70.4197 58.0246 70.9768 61.1691C71.9737 66.7766 72.736 72.4574 73.2858 78.2041H152.414C152.927 72.0322 153.711 65.941 154.781 59.9377C155.302 57.0203 156.738 54.3449 158.871 52.2851C160.696 50.5259 162.602 48.8327 164.567 47.2274C166.942 45.2776 169.932 44.2294 173.004 44.2661C179.315 44.3467 186.725 44.5006 193.037 44.7279C196.013 44.8378 198.695 46.5384 200.103 49.1625C204.251 56.8957 207.352 65.2813 209.229 74.114L218.926 71.7391C220.59 71.3286 221.763 69.8406 221.763 68.118V63.5294C221.763 62.2686 221.001 61.1252 219.828 60.6487H219.842ZM139.923 25.9043L131.963 44.9991C129.419 51.0977 123.46 55.0632 116.856 55.0632H95.8476C91.5009 55.0632 87.9752 51.5375 87.9752 47.1908V28.6165L102.643 4.67656C117.229 4.69122 130.064 4.83049 141.206 5.04306L139.93 25.9043H139.923ZM153.975 25.9043L150.808 5.2483C168.979 5.68811 181.712 6.30383 189.262 6.74363C192.971 6.9562 196.247 9.33113 197.618 12.7763L202.829 25.9043H153.967H153.975Z" fill="#009993"></path>
    <path d="M213.802 32.5161H211.288C210.423 32.5161 209.456 33.2638 209.727 34.9937C210.35 39.0692 211.061 44.0243 211.266 48.6569C211.303 49.5218 211.435 50.2181 212.3 50.2181H213.802C214.667 50.2181 215.364 49.5145 215.364 48.6569V34.0774C215.364 33.2125 214.66 32.5161 213.802 32.5161Z" fill="white"></path>
    <path d="M8.86945 38.0943C7.98985 38.2776 7.55737 39.9195 7.55737 43.8851C7.55737 47.1982 8.07048 49.7564 8.9061 49.7564C9.51449 49.7564 10.1815 49.8737 10.9219 43.8851C11.5449 38.8053 11.0685 37.9844 9.94696 37.9844C9.68308 37.9844 9.14066 38.0357 8.86212 38.0943H8.86945Z" fill="white"></path>
    <path d="M181.245 102.912C194.281 102.912 204.848 92.3451 204.848 79.3096C204.848 66.2742 194.281 55.7069 181.245 55.7069C168.21 55.7069 157.642 66.2742 157.642 79.3096C157.642 92.3451 168.21 102.912 181.245 102.912Z" fill="#009993"></path>
    <path d="M43.7141 102.898C56.7495 102.898 67.3168 92.3309 67.3168 79.2955C67.3168 66.2601 56.7495 55.6928 43.7141 55.6928C30.6787 55.6928 20.1114 66.2601 20.1114 79.2955C20.1114 92.3309 30.6787 102.898 43.7141 102.898Z" fill="#009993"></path>
  </symbol>
  <symbol fill="none" xmlns="http://www.w3.org/2000/svg" viewBox="0 0 240 74" id="coupe">
    <path d="M238.323 38.1379L237.292 37.7338C236.989 33.8001 235.979 30.1628 233.554 26.7411C231.277 23.5214 231.21 22.1743 231.533 20.8137C231.708 20.0795 231.203 19.3655 230.456 19.3049L215.374 18.0588C187.145 4.79617 157.407 -1.37374 126.49 0.256298C117.733 0.714327 109.159 2.85628 101.184 6.5003C92.2253 10.5889 83.5902 15.2635 75.3254 20.4634C39.9091 22.0935 13.0336 28.1758 4.89689 34.5208C4.27721 35.0058 3.86633 35.6996 3.75182 36.4809L2.92333 41.9032L2.19587 42.8462C1.36065 43.9306 0.92956 45.2778 0.983446 46.6451L1.21246 52.5927C1.2394 53.3606 1.08448 54.1285 0.747696 54.8223L0.262725 55.8259C0.0337111 56.3041 -0.0403817 56.843 0.0471825 57.3616L0.471532 59.8067C0.633189 60.7295 1.38759 61.4233 2.31712 61.5176L19.3854 63.188V55.3611C19.3854 43.4457 29.0444 33.7799 40.9666 33.7799C52.8888 33.7799 62.5478 43.4389 62.5478 55.3611V63.1341H171.511V55.3611C171.511 43.4457 181.17 33.7799 193.093 33.7799C205.015 33.7799 214.674 43.4389 214.674 55.3611V59.8875L233.453 56.8362C236.343 56.3647 238.565 54.0274 238.882 51.1109L239.993 40.8861C240.121 39.7006 239.441 38.569 238.33 38.1379H238.323ZM95.3372 22.4235L96.5362 13.2495C98.6377 12.2054 100.753 11.1951 102.881 10.2251C110.452 6.76973 118.394 4.79616 126.49 4.35834C133.327 3.98788 139.907 4.07544 146.306 4.63451L141.133 20.4028C127.359 21.0562 111.988 21.6826 95.3372 22.4235ZM143.578 20.2883L148.213 4.81637C162.499 6.28476 175.849 10.1982 188.896 16.9878C177.27 18.4292 161.9 19.3992 143.585 20.2883H143.578Z" fill="#009993"></path>
    <path d="M230.934 26.7209C229.896 25.6095 229.257 25.2525 227.984 25.1649C226.704 25.0774 220.615 24.8955 217.853 24.8955C216.688 24.8955 216.715 25.7914 218.028 26.5458C220.925 28.2162 223.073 29.5701 225.902 31.3753C226.778 31.9343 227.721 32.224 228.543 32.224C232.348 32.224 234.564 32.6416 234.564 32.6416C233.837 30.439 232.254 28.1286 230.934 26.7209Z" fill="white"></path>
    <path d="M57.6203 62.1245C61.3604 52.9231 56.9331 42.4319 47.7317 38.6919C38.5302 34.9518 28.0391 39.3792 24.2991 48.5806C20.559 57.782 24.9863 68.2731 34.1877 72.0132C43.3892 75.7532 53.8803 71.3259 57.6203 62.1245Z" fill="#009993"></path>
    <path d="M200.03 71.9531C209.194 68.1217 213.516 57.587 209.685 48.4233C205.854 39.2595 195.319 34.9368 186.155 38.7682C176.991 42.5996 172.669 53.1343 176.5 62.298C180.332 71.4618 190.866 75.7845 200.03 71.9531Z" fill="#009993"></path>
    <path d="M19.19 33.0258C15.4786 33.2076 12.205 33.7397 8.95168 34.5817C7.7864 34.8848 6.8232 35.8278 6.23045 37.0133C5.07191 39.3034 4.91699 41.2366 4.91699 41.2366C7.09936 40.9672 8.87085 40.9672 11.1206 40.9941C12.2926 41.0076 13.4511 40.664 14.4076 39.977C16.4553 38.5086 18.3884 36.8988 20.1868 35.1408C21.2578 34.0967 20.6583 32.9449 19.1967 33.019L19.19 33.0258Z" fill="white"></path>
  </symbol>
  <symbol fill="none" xmlns="http://www.w3.org/2000/svg" viewBox="0 0 240 88" id="crossover">
    <path d="M238.311 42.2651L237.067 40.9893C236.06 39.9575 235.435 38.6254 235.297 37.2307L233.815 22.4152C233.69 21.1519 232.695 20.1451 231.426 20.0075L224.29 19.2257C205.335 11.2645 185.328 5.32331 164.484 2.02124C148.931 -0.442798 133.096 -0.580384 117.455 1.20823C111.388 1.90242 105.491 3.59723 99.9938 6.24263C88.7993 11.6398 78.0551 17.8249 67.8237 24.7104C35.9287 26.3615 11.1007 31.6398 3.67108 38.3502C2.90185 39.0444 2.43281 40.0012 2.34525 41.0581L1.8637 46.9994L1.10698 48.075C0.256449 49.2883 -0.125039 50.7705 0.0375626 52.2464L0.969395 60.6829C1.04444 61.3896 0.944379 62.1088 0.675461 62.7655L0.318988 63.6347C-0.0249765 64.4665 -0.0937695 65.3921 0.125117 66.2676L0.556637 68.0312C0.906856 69.4571 2.0138 70.5766 3.43969 70.9456L15.3721 74.0225V68.6441C15.3721 55.9675 25.4159 45.3608 38.0926 45.1482C51.0382 44.9293 61.601 55.3608 61.601 68.2626V73.8474L167.104 72.9343V68.1063C167.104 55.4296 177.148 44.823 189.825 44.6104C202.771 44.3915 213.333 54.823 213.333 67.7248V70.6516L229.087 68.1063C233.365 67.4184 236.748 64.1226 237.555 59.8636L239.887 47.5184C240.25 45.611 239.656 43.6473 238.305 42.2589L238.311 42.2651ZM125.76 24.3539C113.383 25.2107 101.038 26.1926 88.7367 27.312L89.9813 17.975C93.8587 15.3733 97.7861 13.0031 101.664 10.9706C106.842 8.25013 112.258 6.5178 117.761 5.82987C122.47 5.23575 127.148 4.85426 131.795 4.66039L125.76 24.3539ZM166.129 22.04C156.31 22.4903 146.51 23.0156 136.735 23.6285L138.305 4.5228C146.973 4.5228 155.491 5.2295 163.771 6.65539C164.978 6.86177 166.179 7.08691 167.367 7.32456L166.123 22.04H166.129ZM167.955 21.9524L168.793 7.61849C169.131 7.68728 169.475 7.75608 169.812 7.83112L176.967 21.5772C173.959 21.696 170.957 21.8211 167.955 21.9524ZM189.894 16.8242L186.448 19.4384C184.872 20.6329 182.971 21.3146 180.994 21.4084L173.552 8.68791C178.899 9.99497 184.146 11.596 189.381 13.4847C190.813 14.0037 191.107 15.9049 189.894 16.8242Z" fill="#009993"></path>
    <path d="M229.049 23.8725C225.972 23.6474 222.871 23.5098 219.756 23.4098C217.961 23.3535 217.292 24.8231 218.743 26.0239C221.932 28.6693 224.966 31.4898 227.949 34.3478C228.874 35.2296 230.1 35.7174 231.382 35.6924C231.882 35.6862 232.376 35.6799 232.877 35.6737C232.877 32.4717 232.583 29.3197 231.857 26.2928C231.438 24.5542 230.957 24.0101 229.043 23.8663L229.049 23.8725Z" fill="white"></path>
    <path d="M19.5434 36.9683C15.3596 37.1747 11.7073 37.7751 8.09879 38.7256C6.81048 39.0634 5.79735 40.1328 5.21574 41.4711C4.09629 44.0602 4.07127 46.2491 4.07127 46.2491C6.51655 45.9427 8.5178 45.9489 11.0631 45.9802C12.3952 45.9989 13.671 45.6049 14.6967 44.8357C16.8918 43.1784 18.9493 41.3523 20.8317 39.3698C21.9574 38.1878 21.1882 36.8933 19.5372 36.9746L19.5434 36.9683Z" fill="white"></path>
    <path d="M38.4954 87.8116C48.9401 87.8116 57.4072 79.3445 57.4072 68.8998C57.4072 58.4551 48.9401 49.988 38.4954 49.988C28.0507 49.988 19.5836 58.4551 19.5836 68.8998C19.5836 79.3445 28.0507 87.8116 38.4954 87.8116Z" fill="#009993"></path>
    <path d="M190.224 87.8046C200.669 87.8046 209.136 79.3375 209.136 68.8928C209.136 58.448 200.669 49.9809 190.224 49.9809C179.78 49.9809 171.313 58.448 171.313 68.8928C171.313 79.3375 179.78 87.8046 190.224 87.8046Z" fill="#009993"></path>
  </symbol>
  <symbol fill="none" xmlns="http://www.w3.org/2000/svg" viewBox="0 0 240 82" id="hatchback">
    <path d="M238.794 45.999L235.875 42.7622C235.014 41.8032 234.521 40.5691 234.478 39.2786L234.091 25.5559C234.055 24.3994 233.181 23.4474 232.031 23.3205L229.246 23.0102C224.648 18.4336 219.79 14.1179 214.726 10.049C216.102 9.70351 217.505 9.20989 218.915 8.50471C219.973 7.97583 220.192 7.2777 218.831 7.05204L204.325 4.66854C176.485 0.106048 148.2 -1.11391 120.12 1.01573C113.35 1.53051 106.736 3.3005 100.622 6.24814C89.4376 11.6498 78.5849 17.6368 68.106 24.1596C36.7891 25.6476 12.8201 31.8179 5.21827 38.3196C4.47783 38.9543 3.99126 39.8357 3.84317 40.8018L3.00401 46.3022L2.24242 47.2895C1.368 48.4248 0.916686 49.8351 0.9731 51.2667L1.26222 58.7486C1.29043 59.5525 1.12824 60.3564 0.775651 61.0827L0.267923 62.1334C0.0281627 62.6341 -0.0494068 63.1983 0.0422663 63.7412L0.528839 66.5408C0.676926 67.3659 1.33979 68.0076 2.1719 68.1133L18.5673 70.3135V64.4394C18.5673 52.4937 28.066 42.5436 40.0117 42.3885C52.1478 42.2333 62.0273 52.0212 62.0273 64.115V71.195H170.78V64.4323C170.78 52.4866 180.279 42.5366 192.224 42.3814C204.36 42.2263 214.24 52.0141 214.24 64.1079V68.4518L233.935 64.6439C236.615 64.122 238.646 61.9219 238.942 59.207L239.979 49.6447C240.12 48.312 239.697 46.9862 238.801 45.9919L238.794 45.999ZM129.83 25.3443C115.896 26.2117 101.969 26.9733 88.0695 27.6291L89.5293 16.7059C93.8167 14.407 98.1395 12.1998 102.483 10.0984C108.118 7.37642 114.161 5.75452 120.451 5.275C125.705 4.87305 130.973 4.59803 136.24 4.43584L129.837 25.3443H129.83ZM171.379 22.4461C161.041 23.25 150.71 23.9904 140.387 24.6744L142.058 4.3089C151.811 4.18197 162.6 4.53456 172.797 5.61348L171.379 22.4461ZM194.015 18.2644L192.478 20.7325C186.244 21.2614 180.018 21.7761 173.791 22.2627L174.75 5.83209C177.507 6.14942 180.215 6.52316 182.831 6.96037C185.8 7.45399 188.536 8.87845 190.623 11.0504L193.585 14.132C194.664 15.2533 194.84 16.9598 194.015 18.2714V18.2644Z" fill="#009993"></path>
    <path d="M228.809 26.9029C225.953 26.6914 223.083 26.5644 220.199 26.4798C218.534 26.4305 217.914 27.7915 219.261 28.9056C222.215 31.3596 225.022 33.9688 227.786 36.6203C228.64 37.4383 229.782 37.8896 230.967 37.8684C231.425 37.8614 231.891 37.8543 232.349 37.8473C232.349 34.8855 232.081 31.959 231.404 29.1595C231.016 27.5517 230.572 27.044 228.802 26.917L228.809 26.9029Z" fill="white"></path>
    <path d="M44.3129 81.4155C53.5937 79.1993 59.3208 69.8792 57.1046 60.5984C54.8885 51.3176 45.5684 45.5905 36.2875 47.8067C27.0067 50.0228 21.2797 59.3429 23.4958 68.6237C25.712 77.9045 35.0321 83.6316 44.3129 81.4155Z" fill="#009993"></path>
    <path d="M196.474 81.4389C205.76 79.247 211.512 69.9419 209.32 60.6553C207.128 51.3688 197.823 45.6173 188.537 47.8092C179.25 50.001 173.499 59.3061 175.69 68.5927C177.882 77.8793 187.187 83.6307 196.474 81.4389Z" fill="#009993"></path>
    <path d="M20.0411 37.015C16.1556 37.2054 12.7284 37.7625 9.3224 38.644C8.10244 38.9613 7.09404 39.9485 6.47348 41.1897C5.26058 43.5873 5.09839 45.6111 5.09839 45.6111C7.38316 45.329 9.23778 45.329 11.5931 45.3573C12.8201 45.3714 14.033 45.0117 15.0343 44.2924C17.1781 42.7551 19.2019 41.0627 21.0848 39.2293C22.206 38.1362 21.5784 36.9304 20.0481 37.0079L20.0411 37.015Z" fill="white"></path>
  </symbol>
  <symbol fill="none" xmlns="http://www.w3.org/2000/svg" viewBox="0 0 240 75" id="liftback">
    <path d="M238.894 41.2942L236.217 38.3263C235.428 37.4469 234.976 36.3154 234.937 35.1321L234.633 24.3597C234.575 22.2324 233.036 20.4283 230.941 20.0404L227.682 19.4326C214.989 13.8912 200.79 8.49202 187.567 4.80638C183.726 3.73302 178.049 2.40748 174.092 1.91606C155.954 -0.321189 137.617 -0.599229 119.434 1.08194C112.393 1.73501 105.545 3.66836 99.2084 6.80439C89.9167 11.4082 80.9483 16.5681 72.342 22.2324C39.3652 22.769 12.3178 27.735 4.72667 34.298C4.06713 34.867 3.65331 35.6688 3.51752 36.5288L2.74806 41.5723L2.04973 42.4775C1.24794 43.5186 0.834114 44.8118 0.885842 46.1244L1.15095 52.9848C1.17681 53.722 1.0281 54.4591 0.704793 55.1251L0.239238 56.0885C0.0193931 56.5476 -0.0517333 57.0649 0.0323252 57.5628L0.478482 60.1298C0.614269 60.8863 1.22208 61.4748 1.98507 61.5717L15.5573 63.3887V56.8321C15.5573 45.1351 24.7843 35.3067 36.4749 35.0545C48.5018 34.7959 58.3301 44.4691 58.3301 56.4377V64.3909H170.406V56.8257C170.406 45.1286 179.633 35.3002 191.324 35.048C203.35 34.7894 213.179 44.4626 213.179 56.4312V62.4964L234.426 58.384C236.883 57.9055 238.746 55.8881 239.017 53.3987L239.968 44.6307C240.097 43.4086 239.709 42.193 238.888 41.2813L238.894 41.2942ZM187.632 11.9708C188.479 12.9083 188.414 14.3503 187.483 15.2167L181.004 21.256C178.249 21.3788 175.43 21.5017 172.527 21.6245L173.452 5.80862C181.185 7.08889 185.685 9.81109 187.632 11.9708ZM127.737 22.879C114.507 23.1958 101.297 23.6161 88.1192 24.1528L89.1085 16.594C93.014 14.3891 96.9647 12.2876 100.948 10.3154C106.871 7.37986 113.272 5.5823 119.977 4.96803C124.471 4.5542 128.978 4.26323 133.491 4.09512L127.737 22.879ZM139.052 3.95286C149.947 3.78475 160.856 4.33436 171.673 5.5823L170.309 21.7151C160.235 22.1289 149.294 22.4975 137.513 22.6656L139.052 3.95286Z" fill="#009993"></path>
    <path d="M229.738 23.7905C227.12 23.5965 224.488 23.4802 221.843 23.4026C220.317 23.3573 219.748 24.6052 220.983 25.6269C223.693 27.8771 226.266 30.2695 228.801 32.7007C229.583 33.4508 230.631 33.8646 231.717 33.8452C232.137 33.8387 232.564 33.8323 232.984 33.8258C232.984 31.1101 232.739 28.4267 232.118 25.8597C231.762 24.3854 231.355 23.9198 229.732 23.8035L229.738 23.7905Z" fill="white"></path>
    <path d="M18.3766 33.0498C14.8138 33.2243 11.6713 33.7352 8.54821 34.5434C7.42958 34.8344 6.50494 35.7396 5.93593 36.8777C4.82377 39.0761 4.67505 40.9319 4.67505 40.9319C6.77005 40.6732 8.47061 40.6732 10.6303 40.6991C11.7554 40.712 12.8675 40.3823 13.7857 39.7227C15.7514 38.3131 17.6071 36.7613 19.3336 35.0801C20.3617 34.0779 19.7862 32.9722 18.3831 33.0433L18.3766 33.0498Z" fill="white"></path>
    <path d="M43.556 72.8917C52.3651 69.2429 56.5482 59.1438 52.8994 50.3348C49.2506 41.5257 39.1515 37.3426 30.3425 40.9914C21.5335 44.6402 17.3503 54.7393 20.9991 63.5483C24.6479 72.3573 34.747 76.5405 43.556 72.8917Z" fill="#009993"></path>
    <path d="M207.753 63.5441C211.402 54.7351 207.219 44.636 198.41 40.9872C189.601 37.3384 179.502 41.5216 175.853 50.3306C172.204 59.1396 176.387 69.2387 185.196 72.8875C194.005 76.5364 204.104 72.3532 207.753 63.5441Z" fill="#009993"></path>
  </symbol>
  <symbol fill="none" xmlns="http://www.w3.org/2000/svg" viewBox="0 0 142 81" id="micro">
    <path d="M141.239 59.7296C141.031 57.1855 140.649 54.7248 140.107 52.3893C139.613 50.2622 138.675 48.2603 137.271 46.5851C136.542 45.7162 135.757 44.9168 134.93 44.1592C134.638 27.7268 130.392 15.4373 126.389 5.84481C129.488 5.04543 130.225 4.73959 130.017 3.41193C109.357 -0.265193 88.2872 -0.967252 67.4677 1.29185C64.0557 1.66026 60.7549 2.76548 57.8154 4.53105C48.4133 10.1684 39.4767 16.5008 31.0753 23.4658C16.4961 25.5233 7.44139 30.4238 6.26004 34.4624C5.42615 37.3332 4.95361 42.199 4.73124 45.1949C4.39768 45.5772 4.07108 45.9665 3.75837 46.3696C2.67431 47.7598 1.90296 49.3655 1.48601 51.0755C0.672968 54.4051 0.172633 57.9849 0.00585427 61.7176C-0.0497385 62.9688 0.290767 64.227 1.02042 65.2418C1.5694 66.0064 2.25041 66.6668 3.01481 67.2159C2.73685 65.4156 2.7021 63.5388 2.95922 61.6133C4.11972 52.7646 11.3537 45.744 20.2347 44.8404C31.9092 43.6587 41.756 52.7924 41.756 64.227C41.756 65.8327 41.5545 67.3897 41.1932 68.8842H101.122C100.483 66.2706 100.358 63.4554 100.907 60.5429C102.498 52.1043 109.621 45.6259 118.168 44.8265C129.773 43.7421 139.523 52.848 139.523 64.227C139.523 64.5745 139.516 64.929 139.495 65.2696C140.093 64.4911 140.572 63.6222 140.899 62.6769C141.225 61.7385 141.323 60.7236 141.239 59.7296ZM50.366 14.5476C53.4514 12.2885 56.641 10.1545 59.9835 8.15257C62.381 6.71369 65.1259 5.79615 67.9263 5.4903C75.5634 4.66312 83.2352 4.23911 90.8931 4.22521L90.1704 23.8342C77.4258 24.6822 62.2142 25.9195 49.7128 27.1985L50.366 14.5476ZM92.6234 23.6674L92.8319 4.23216C93.2419 4.23216 93.6519 4.23216 94.0619 4.23216C97.5156 4.27386 100.726 6.05334 102.575 8.96585C104.993 12.782 107.46 17.891 109.1 22.7846C104.889 22.9306 99.1417 23.2364 92.6165 23.6604L92.6234 23.6674Z" fill="#009993"></path>
    <path d="M130.607 36.8397C131.525 36.8258 132.289 36.1168 132.261 35.2757C132.171 32.4883 131.935 30.1597 131.24 27.5114C130.767 25.711 130.128 24.585 127.96 24.585C124.075 24.585 123.54 26.0447 125.708 31.4943C126.813 34.2748 129.162 36.8536 130.614 36.8328L130.607 36.8397Z" fill="white"></path>
    <path d="M14.6686 30.4519C12.4865 31.4806 10.7562 32.7388 9.15792 34.3723C8.32403 35.2273 7.88624 36.395 7.65692 37.7922C7.22607 40.3989 7.22607 43.1376 7.22607 43.1376C8.26149 42.5398 9.37334 41.9837 10.7006 41.4624C11.7638 41.0453 12.6672 40.2599 13.2787 39.245C14.5852 37.0624 15.7457 34.7755 16.7255 32.4121C17.3092 31.001 15.968 29.8471 14.6755 30.4588L14.6686 30.4519Z" fill="white"></path>
    <path d="M22.2707 79.9991C30.9788 79.9991 38.0382 72.9377 38.0382 64.2271C38.0382 55.5165 30.9788 48.4551 22.2707 48.4551C13.5625 48.4551 6.50317 55.5165 6.50317 64.2271C6.50317 72.9377 13.5625 79.9991 22.2707 79.9991Z" fill="#009993"></path>
    <path d="M134.639 70.1912C137.927 62.1251 134.055 52.9205 125.991 49.6321C117.927 46.3437 108.725 50.2167 105.438 58.2828C102.15 66.3489 106.022 75.5535 114.086 78.8419C122.15 82.1303 131.352 78.2573 134.639 70.1912Z" fill="#009993"></path>
  </symbol>
  <symbol fill="none" xmlns="http://www.w3.org/2000/svg" viewBox="0 0 240 90" id="minivan">
    <path d="M43.1138 87.1505C50.6372 82.5003 52.9664 72.6316 48.3162 65.1082C43.666 57.5848 33.7974 55.2556 26.274 59.9058C18.7505 64.556 16.4213 74.4246 21.0715 81.948C25.7217 89.4715 35.5904 91.8007 43.1138 87.1505Z" fill="#009993"></path>
    <path d="M200.388 87.1437C207.911 82.4935 210.241 72.6248 205.59 65.1014C200.94 57.578 191.072 55.2488 183.548 59.8989C176.025 64.5491 173.695 74.4178 178.346 81.9412C182.996 89.4646 192.865 91.7938 200.388 87.1437Z" fill="#009993"></path>
    <path d="M237.813 59.2251C237.786 37.6023 236.41 21.6726 231.347 8.50196C229.991 4.97497 226.792 2.48595 223.027 2.12054C188.329 -1.25818 134.116 0.0181065 97.2573 1.70746C89.5201 2.06228 81.9842 4.29711 75.2798 8.17892C63.8302 14.7987 52.7832 22.038 42.1758 29.844C22.8726 35.2934 13.0012 39.1434 7.83785 42.3897C5.94725 43.576 4.54386 45.3924 3.83423 47.5055C2.88099 50.344 2.26667 53.4262 2.01777 57.6098C1.9807 58.2559 1.75828 58.8808 1.39287 59.421L0.640866 60.5172C0.227794 61.1209 0.00537109 61.8359 0.00537109 62.5667V65.3735C0.00537109 66.2367 0.190724 67.0946 0.545542 67.8837L2.16076 71.4425C2.30374 71.7602 2.21372 72.1415 1.93834 72.3586L0.942726 73.1424C0.609091 73.4019 0.550838 73.8838 0.815627 74.2174L1.40346 74.9642C2.30904 76.1133 4.60741 77.0136 8.07086 77.4797L15.2837 78.4435V73.3648C15.2837 62.7468 23.6564 53.8233 34.2744 53.5956C45.1891 53.3626 54.1125 62.143 54.1125 73.0047V77.6862L172.558 76.5476V72.1256C172.558 61.5075 180.931 52.5841 191.549 52.3564C202.463 52.1234 211.387 60.9038 211.387 71.7655V74.3392L234.45 71.9403C236.219 71.7549 237.749 70.6428 238.47 69.017L239.719 66.1996C240.111 65.3099 240.111 64.2931 239.709 63.4034L237.823 59.2251H237.813ZM211.969 6.08708C214.639 6.36246 217.138 7.55402 218.981 9.50287C222.73 13.4694 225.728 19.4325 227.396 26.0787C209.126 26.1475 190.86 26.4282 172.595 26.9313L170.043 4.03232C185.003 4.23356 199.715 4.82668 211.969 6.08708ZM161.262 3.95818L162.321 27.2332C145.979 27.7522 129.646 28.4459 113.314 29.3038L112.806 4.77902C126.331 4.3077 143.67 3.89463 161.262 3.95818ZM77.3186 11.2611C83.4035 7.74996 90.3516 5.72167 97.4215 5.39863C99.4709 5.30331 101.775 5.20269 104.295 5.10207L103.024 29.8705C88.837 30.6807 74.6548 31.6234 60.478 32.6984L59.6201 23.2878C65.5673 18.7758 71.5833 14.5762 77.3186 11.2611Z" fill="#009993"></path>
    <path d="M17.7569 42.48C14.1981 43.7404 11.2324 45.1755 8.04438 47.5428C6.97992 48.3318 6.02668 49.5763 5.45473 51.0433C4.34791 53.8818 4.19434 56.0001 4.19434 56.0001C6.26499 54.9886 7.94376 54.4008 10.078 53.6859C11.1901 53.3099 12.2863 52.5579 13.1972 51.5093C15.1407 49.2639 16.9837 46.8914 18.6942 44.4182C19.711 42.946 19.5045 41.8604 17.7622 42.48H17.7569Z" fill="white"></path>
    <path d="M235.271 51.1492C235.271 45.2497 234.927 39.705 233.942 34.531C233.82 33.8903 233.476 33.2971 232.919 32.9317C231.972 32.3174 230.473 32.0473 229.075 31.9414C229.705 38.3493 229.292 44.789 228.286 51.1492H235.271Z" fill="white"></path>
  </symbol>
  <symbol fill="none" xmlns="http://www.w3.org/2000/svg" viewBox="0 0 240 91" id="off-road">
    <path d="M238.756 49.4734L236.814 47.0779C236.639 42.403 236.43 36.9141 235.599 32.5241C235.232 30.5646 234.959 29.5122 233.889 28.8145C233.116 28.3086 231.866 27.9307 230.738 27.5818C228.156 20.1915 224.801 13.1676 220.766 6.59719C222.702 6.25995 224.784 5.6785 226.708 4.55048C227.551 4.05043 227.726 3.2771 226.528 3.16081L213.835 1.91651C179.936 -1.4094 131.815 0.0500469 104.004 2.82939C98.1143 3.41665 92.4335 5.35289 87.4621 8.56831C80.1765 13.2781 72.3036 19.6508 64.3377 26.541C29.503 27.6981 7.29152 29.0529 4.02958 36.6117C3.04692 38.8852 2.51199 43.5194 2.37825 47.8512L1.7154 48.8048C0.912996 49.956 0.55831 51.369 0.732746 52.7645L1.19791 56.6078C1.2735 57.23 1.17465 57.858 0.912996 58.4278L0.302471 59.7593C0.0757052 60.2536 -0.0289561 60.7885 0.000116464 61.335L0.157108 64.5796C0.383875 69.2835 6.58215 71.5977 14.1352 72.2896L16.3331 72.4931C16.3098 72.0047 16.2982 71.5105 16.2982 71.0162C16.2982 64.5679 18.4147 58.6197 21.9906 53.8169C24.3746 50.6189 27.9854 48.5489 31.9451 48.1012C37.7305 47.45 43.5683 47.3453 49.3712 47.793C52.3947 48.0256 55.1973 49.5141 57.0056 51.9504C60.9537 57.2765 63.2911 63.8702 63.2911 71.0104C63.2911 72.3129 63.2097 73.5921 63.0585 74.8538H160.632C160.463 73.5979 160.37 72.3129 160.37 71.0104C160.37 64.5621 162.487 58.6139 166.063 53.8111C168.447 50.6131 172.057 48.5431 176.017 48.0954C181.803 47.4442 187.64 47.3395 193.443 47.7872C196.467 48.0198 199.275 49.5083 201.078 51.9446C205.026 57.2707 207.363 63.8644 207.363 71.0046C207.363 72.3129 207.282 73.6037 207.125 74.8713L227.034 72.0047C234.418 70.9406 238.221 67.9171 238.663 64.2946L239.959 53.6599C240.14 52.1597 239.709 50.648 238.756 49.4734ZM117.82 29.7215L81.037 30.7798L82.6535 18.6798C84.9502 16.1563 88.3284 13.72 90.5263 12.2896C95.0907 9.30676 99.2365 7.81243 104.475 7.28912C109.947 6.74256 116.145 6.25414 122.814 5.84712L117.82 29.7273V29.7215ZM159.423 28.5237L128.821 29.4075L130.949 5.3994C140.403 4.93424 150.538 4.63189 160.754 4.53304L159.423 28.5295V28.5237ZM161.225 28.4714L162.027 4.52141C163.254 4.50978 164.481 4.50397 165.714 4.49815L169.307 28.2388L161.225 28.4714ZM207.131 24.1221C205.979 24.8722 204.787 25.5583 203.555 26.1805C202.066 26.9306 200.432 27.3434 198.764 27.3899L180.89 27.9074L173.127 4.52141C181.89 4.59118 190.524 4.83539 198.647 5.28311C200.938 5.41103 202.491 6.37043 203.706 8.9637C205.537 12.8594 207.072 16.9761 208.195 21.1626C208.602 22.6918 208.404 23.2965 207.125 24.128L207.131 24.1221Z" fill="#009993"></path>
    <path d="M22.8105 36.0827H10.1464C8.86143 36.0827 7.24499 37.1642 6.15768 40.5133C5.08199 43.8392 4.85522 46.0778 4.85522 46.0778C7.76248 45.7871 13.7282 45.2696 16.1819 45.2987C17.4669 45.3161 18.781 44.8393 19.6183 43.8741C21.0138 42.2577 21.7115 41.0134 24.0199 38.1061C25.0025 36.8734 25.0549 36.0827 22.8105 36.0827Z" fill="white"></path>
    <path d="M57.0927 79.1211C61.0498 69.5679 56.5132 58.6157 46.96 54.6586C37.4069 50.7016 26.4547 55.2381 22.4976 64.7913C18.5405 74.3445 23.0771 85.2967 32.6303 89.2538C42.1834 93.2108 53.1357 88.6743 57.0927 79.1211Z" fill="#009993"></path>
    <path d="M201.168 79.1165C205.125 69.5634 200.588 58.6112 191.035 54.6541C181.482 50.697 170.53 55.2336 166.573 64.7868C162.616 74.34 167.152 85.2922 176.705 89.2492C186.259 93.2063 197.211 88.6697 201.168 79.1165Z" fill="#009993"></path>
    <path d="M230.505 31.6228C229.842 31.5646 229.668 31.5472 229.179 31.5356C227.912 31.5007 227.394 32.0879 227.394 33.3788C227.394 36.7744 226.569 42.1412 225.516 45.6183C227.627 45.6183 232.284 45.4613 234.139 45.1997C234.139 42.0308 233.918 37.414 233.197 34.4137C232.784 32.6927 232.389 31.7914 230.511 31.617L230.505 31.6228Z" fill="white"></path>
  </symbol>
  <symbol fill="none" xmlns="http://www.w3.org/2000/svg" viewBox="0 0 240 91" id="pickup">
    <path d="M235.989 56.6141C237.32 48.7653 237.729 40.799 237.242 32.872C237.214 32.4468 237.315 32.0216 237.533 31.658L238.881 29.3699C239.127 28.956 239.189 28.4581 239.06 27.9938L238.512 26.0358C238.383 25.577 237.969 25.2582 237.494 25.2582H142.29C140.819 25.2582 140.209 26.0525 139.18 28.9168C138.671 18.1982 137.496 9.14105 135.941 3.44048C135.387 1.41535 133.558 0 131.454 0C122.962 0 117.127 0.128668 109.687 0.57621C102.677 0.995781 95.8411 2.91462 89.6595 6.24321C79.9982 11.4515 70.7172 17.2695 61.8559 23.6358C40.8326 24.7659 22.9198 26.6903 16.587 27.4679C9.56623 28.3294 5.95792 30.4888 5.46003 31.9881C3.45168 38.0075 2.62933 44.771 3.28945 51.2268L1.30908 53.1232C0.35805 54.0351 -0.117463 55.3386 0.0279881 56.6476L0.783215 63.5901C0.995798 65.5313 2.73562 67.8026 7.31733 68.5411L17.9465 70.2585V68.7816C17.9465 55.3554 28.8273 44.4745 42.2536 44.4745C55.6798 44.4745 66.5607 55.3554 66.5607 68.7816V71.8137H160.791V68.7816C160.791 55.3554 171.672 44.4745 185.098 44.4745C198.524 44.4745 209.405 55.3554 209.405 68.7816V70.2082L234.4 67.6292C238.204 67.2376 240.006 65.688 240.006 63.8922V58.5553C240.006 57.1343 239.469 56.6141 238.064 56.6141H235.989ZM123.516 27.6525H114.498C112.786 27.6525 111.08 27.921 109.446 28.4413L101.486 30.9867C99.8522 31.507 98.1516 31.7755 96.4341 31.7755H85.3463L84.2162 19.1828C89.0273 15.0318 92.7195 12.2179 98.1068 8.99559C102.56 6.33831 105.827 5.57749 110.632 5.22505C115.309 4.8838 120.042 4.69919 124.792 4.52017L123.505 27.6469L123.516 27.6525Z" fill="#009993"></path>
    <path d="M235.161 35.0482C235.139 34.0972 234.339 33.4259 233.388 33.3811C230.825 33.2525 227.508 33.2804 224.996 33.3643C223.189 33.4203 222.787 33.9909 222.753 35.7531C222.736 36.5699 222.775 37.5657 222.831 38.1642C222.971 39.7083 223.268 40.6313 224.129 41.5096C226.865 44.2844 228.789 46.9081 230.937 49.9234C231.441 50.6283 232.112 50.9528 232.974 50.9248C233.818 50.8968 234.529 50.2591 234.63 49.4143C235.206 44.5305 235.267 39.9264 235.161 35.0482Z" fill="white"></path>
    <path d="M8.17876 50.3148C10.0081 50.1078 11.4346 50.0854 12.201 50.0854C12.9675 50.0854 14.2765 50.0071 15.2667 48.5246C16.2121 47.0981 19.4792 43.0366 20.4134 42.0241C21.2582 41.1122 21.7561 40.6647 21.7561 39.4339V35.8032C21.7561 34.6956 21.7113 34.5054 20.5141 34.5054H10.5451C9.28084 34.5054 8.41932 34.8298 7.92702 40.95C7.4571 46.7848 8.17876 50.3204 8.17876 50.3204V50.3148Z" fill="white"></path>
    <path d="M42.2479 90.0343C52.8886 90.0343 61.5146 81.4084 61.5146 70.7677C61.5146 60.127 52.8886 51.501 42.2479 51.501C31.6072 51.501 22.9812 60.127 22.9812 70.7677C22.9812 81.4084 31.6072 90.0343 42.2479 90.0343Z" fill="#009993"></path>
    <path d="M195.221 87.1502C204.272 81.5556 207.075 69.6829 201.48 60.6316C195.886 51.5803 184.013 48.7781 174.962 54.3726C165.91 59.9672 163.108 71.8399 168.703 80.8912C174.297 89.9425 186.17 92.7447 195.221 87.1502Z" fill="#009993"></path>
  </symbol>
  <symbol fill="none" xmlns="http://www.w3.org/2000/svg" viewBox="0 0 240 72" id="sedan">
    <path d="M238.94 39.9093L236.354 37.0418C235.591 36.1922 235.154 35.0989 235.117 33.9557L234.773 21.7985C234.742 20.774 233.967 19.9306 232.949 19.8182L212.558 17.5629C201.962 12.3902 190.942 7.96091 179.554 4.33751C175.824 3.15054 171.988 2.31966 168.096 1.83862C150.666 -0.304181 133.049 -0.572811 115.569 1.02648C108.71 1.65745 102.019 3.51288 95.847 6.57402C86.8697 11.0221 78.2048 16.0073 69.8897 21.4799C38.0788 21.9984 11.9716 26.7838 4.59985 33.106C3.95013 33.662 3.53157 34.4429 3.40038 35.2926L2.65696 40.1654L1.98226 41.04C1.2076 42.0458 0.807775 43.2953 0.857753 44.5635L1.11389 51.198C1.13888 51.9102 0.995193 52.6224 0.682831 53.2659L0.23303 54.1967C0.0206239 54.6402 -0.0480957 55.14 0.0331184 55.6211L0.464178 58.1012C0.595369 58.8321 1.18261 59.4006 1.91978 59.4944L15.0327 61.2498V54.8464C15.0327 43.4889 24.0662 34.0244 35.4237 33.8744C46.9623 33.7245 56.3582 43.0329 56.3582 54.534V62.2181H172.763V54.8402C172.763 43.4827 181.796 34.0181 193.154 33.8682C204.693 33.7183 214.088 43.0266 214.088 54.5278V60.3877L234.617 56.4145C236.991 55.9522 238.79 54.003 239.052 51.5978L239.971 43.1266C240.096 41.9459 239.721 40.7714 238.927 39.8905L238.94 39.9093ZM185.551 11.2969C187.7 12.5464 188.262 15.3889 186.763 17.3692L184.327 20.5866C180.222 20.7303 175.655 20.8864 170.576 21.0489L171.438 6.21169C177.654 7.42365 182.446 9.49773 185.551 11.2969ZM123.422 22.1171C110.64 22.4233 97.8773 22.8293 85.1454 23.3478L86.1013 16.0448C89.8746 13.9145 93.6917 11.8842 97.5399 9.97877C103.262 7.14252 109.447 5.40579 115.926 4.8123C120.267 4.41248 124.622 4.13136 128.982 3.96893L123.422 22.1171ZM134.355 3.83149C145.475 3.66281 156.614 4.25005 167.64 5.6057C168.346 5.69316 169.04 5.79312 169.714 5.90557L168.434 21.1176C158.538 21.4175 146.793 21.7173 132.868 21.9172L134.355 3.83774V3.83149Z" fill="#009993"></path>
    <path d="M230.094 22.9981C227.563 22.8106 225.021 22.6982 222.466 22.6232C220.991 22.5795 220.442 23.7852 221.635 24.7723C224.252 26.9463 226.739 29.2578 229.188 31.6067C229.944 32.3314 230.956 32.7312 232.005 32.7125C232.411 32.7063 232.824 32.7 233.23 32.6938C233.23 30.0699 232.992 27.4773 232.393 24.9972C232.049 23.5728 231.655 23.123 230.087 23.0106L230.094 22.9981Z" fill="white"></path>
    <path d="M17.7628 31.944C14.3206 32.1126 11.2844 32.6062 8.267 33.3871C7.18622 33.6682 6.29287 34.5428 5.74311 35.6423C4.66859 37.7664 4.5249 39.5593 4.5249 39.5593C6.54901 39.3095 8.19203 39.3095 10.2786 39.3344C11.3656 39.3469 12.4401 39.0283 13.3273 38.3911C15.2264 37.0292 17.0194 35.5299 18.6874 33.9056C19.6807 32.9373 19.1247 31.869 17.769 31.9377L17.7628 31.944Z" fill="white"></path>
    <path d="M51.1169 61.4126C54.6422 52.9017 50.6006 43.1444 42.0897 39.619C33.5787 36.0937 23.8214 40.1353 20.296 48.6462C16.7707 57.1572 20.8123 66.9145 29.3233 70.4398C37.8342 73.9652 47.5915 69.9236 51.1169 61.4126Z" fill="#009993"></path>
    <path d="M199.821 70.4376C208.332 66.9123 212.373 57.155 208.848 48.644C205.323 40.1331 195.565 36.0915 187.054 39.6168C178.544 43.1421 174.502 52.8995 178.027 61.4104C181.553 69.9214 191.31 73.963 199.821 70.4376Z" fill="#009993"></path>
  </symbol>
  <symbol fill="none" xmlns="http://www.w3.org/2000/svg" viewBox="0 0 240 71" id="wagon">
    <path d="M238.907 39.8457L236.442 37.1054C235.697 36.2754 235.27 35.2074 235.233 34.0906L234.91 22.7573C234.873 21.5245 234.318 20.3649 233.366 19.5776C229.405 16.3003 225.316 13.1695 221.117 10.1851C214.837 5.72997 207.501 2.98973 199.836 2.22685C171.445 -0.59883 142.37 -0.775817 112.899 1.92781C106.198 2.54421 99.6617 4.3568 93.6319 7.34726C84.8619 11.6926 76.3971 16.5628 68.274 21.909C37.1915 22.4155 11.6932 27.0904 4.49168 33.2667C3.85697 33.8098 3.44807 34.5727 3.31991 35.4027L2.59366 40.163L1.93453 41.0174C1.17776 42 0.787171 43.2206 0.835995 44.4595L1.08622 50.9409C1.11063 51.6366 0.970261 52.3324 0.665111 52.961L0.225696 53.8703C0.0181946 54.3036 -0.0489383 54.7919 0.0304006 55.2618L0.451507 57.6847C0.579669 58.3988 1.15335 58.9541 1.8735 59.0457L14.6837 60.7606V54.5051C14.6837 43.4098 23.5086 34.1638 34.6038 34.0173C45.876 33.8708 55.0549 42.9643 55.0549 54.1999V61.7066H168.772V54.4989C168.772 43.4037 177.597 34.1577 188.692 34.0112C199.964 33.8647 209.143 42.9582 209.143 54.1938V61.0108L235.032 57.88C237.009 57.642 238.566 56.0674 238.779 54.0839L239.969 43.1352C240.098 41.9329 239.713 40.7306 238.901 39.8274L238.907 39.8457ZM193.745 5.3882C199.403 5.87644 204.761 8.14065 209.003 11.9062C210.053 12.8399 211.084 13.792 212.091 14.7685C213.183 15.8304 213.025 17.6369 211.755 18.4852L207.733 21.1827C202.143 21.1583 194.453 21.1644 184.536 21.2682L178.164 4.30797C183.37 4.5765 188.564 4.93048 193.745 5.3821V5.3882ZM175.601 4.19202L180.96 21.317C176.718 21.378 171.958 21.4757 166.624 21.5977L167.655 3.89907C170.304 3.97231 172.952 4.07606 175.601 4.19812V4.19202ZM120.564 22.5254C108.078 22.8244 95.6093 23.2211 83.1714 23.7277L84.1052 16.5933C87.7914 14.5122 91.5203 12.5287 95.2797 10.6673C100.87 7.89653 106.912 6.1999 113.241 5.62011C117.507 5.22952 121.779 4.89996 126.045 4.62533L120.558 22.5254H120.564ZM131.275 4.32628C142.865 3.72209 154.46 3.56951 166.032 3.85025L164.53 21.6405C154.863 21.8602 143.39 22.1287 129.798 22.324L131.275 4.32628Z" fill="#009993"></path>
    <path d="M17.3446 31.7655C13.9818 31.9303 11.0158 32.4124 8.06804 33.1753C7.01223 33.45 6.1395 34.3044 5.60244 35.3785C4.55272 37.4535 4.41235 39.2051 4.41235 39.2051C6.38972 38.961 7.99481 38.961 10.0332 38.9854C11.0951 38.9976 12.1448 38.6863 13.0115 38.0638C14.8668 36.7334 16.6183 35.2747 18.2478 33.6819C19.2182 32.7359 18.675 31.6923 17.3507 31.7594L17.3446 31.7655Z" fill="white"></path>
    <path d="M38.6567 70.5287C47.5106 68.439 52.9941 59.5674 50.9044 50.7135C48.8146 41.8595 39.9431 36.376 31.0891 38.4657C22.2352 40.5555 16.7517 49.4271 18.8414 58.281C20.9311 67.1349 29.8027 72.6184 38.6567 70.5287Z" fill="#009993"></path>
    <path d="M192.744 70.5365C201.598 68.4468 207.081 59.5752 204.992 50.7213C202.902 41.8673 194.03 36.3838 185.176 38.4735C176.322 40.5633 170.839 49.4349 172.929 58.2888C175.018 67.1428 183.89 72.6263 192.744 70.5365Z" fill="#009993"></path>
    <path d="M230.321 23.38C227.849 23.1969 225.365 23.0871 222.869 23.0138C221.429 22.9711 220.892 24.149 222.057 25.1133C224.614 27.2371 227.043 29.4952 229.436 31.7899C230.174 32.4979 231.163 32.8885 232.188 32.8701C232.585 32.864 232.988 32.8579 233.384 32.8518C233.384 30.2886 233.153 27.7558 232.567 25.333C232.231 23.9415 231.847 23.5021 230.315 23.3922L230.321 23.38Z" fill="white"></path>
  </symbol>
</svg>