<svg width="161" height="110" viewBox="0 0 161 110" fill="none" xmlns="http://www.w3.org/2000/svg">
<path d="M160.015 32.265C159.529 29.0018 147.209 25.7379 145.587 27.3699C144.556 28.4083 144.509 33.3427 144.612 36.796C141.719 30.7177 136.5 13.4682 128.695 6.3261C120.252 -1.40028 97.9219 0.0130512 80.0404 0.257075C62.1589 0.0130512 39.8289 -1.40028 31.386 6.32533C23.5809 13.4675 18.3622 30.7169 15.4692 36.7952C15.5716 33.3419 15.5242 28.4075 14.4926 27.3691C12.8713 25.7371 0.551118 29.0011 0.0647349 32.2642C-0.421648 35.5281 1.68601 37.6489 9.95376 37.1593L10.3017 41.1561C7.01941 43.2052 3.05263 46.764 2.22363 55.2471C1.24399 65.2728 1.81143 93.5965 2.09363 105.076C2.16092 107.815 4.38636 109.999 7.10812 109.999H29.0588C31.8288 109.999 34.0749 107.738 34.0749 104.95V98.7572H126.006V104.95C126.006 107.738 128.252 109.999 131.022 109.999H152.972C155.694 109.999 157.919 107.815 157.986 105.076C158.269 93.5965 158.836 65.2736 157.856 55.2471C157.027 46.764 153.061 43.2052 149.778 41.1561L150.126 37.1593C158.394 37.6489 160.501 35.5273 160.015 32.2642V32.265ZM30.6717 16.1024C33.915 9.58078 40.7496 5.66024 47.9949 5.66024H112.086C119.331 5.66024 126.166 9.58078 129.409 16.1024C131.633 20.5749 137.813 34.2318 137.813 34.2318C137.813 34.2318 106.883 31.3659 75.9558 31.3659C45.0284 31.3659 22.2678 34.2318 22.2678 34.2318C22.2678 34.2318 28.4478 20.5749 30.6717 16.1024ZM42.8986 68.7808C41.6352 69.1826 20.6924 65.279 14.3228 63.3684C11.1995 62.4315 10.0799 53.9377 13.7362 49.3766C16.2875 46.1936 37.1576 55.9337 39.1735 57.0268C41.1901 58.1199 44.2078 68.3643 42.8986 68.7808ZM101.673 72.3272C100.122 73.1077 79.3215 72.8476 75.9551 72.8476V72.8868C68.7259 72.903 59.4242 72.8391 58.407 72.3272C56.8561 71.5466 50.007 58.0891 51.1166 58.1061C54.0915 58.1515 65.1537 58.1661 75.9551 58.17V58.1715C88.6745 58.1715 105.22 58.163 108.963 58.1061C110.072 58.0891 103.224 71.5466 101.672 72.3272H101.673ZM145.757 63.3676C139.388 65.2782 118.446 69.1818 117.181 68.78C115.871 68.3635 118.89 58.1192 120.907 57.0261C122.923 55.9329 143.793 46.1928 146.344 49.3759C149.999 53.9369 148.88 62.4308 145.757 63.3676Z" fill="#DAF8F7"/>
</svg>
