<svg width="0" height="0" class="hidden">
  <symbol fill="none" xmlns="http://www.w3.org/2000/svg" viewBox="0 0 20 20" id="compass">
    <path d="M11.5905 11.591L11.8859 12.2804C12.0582 12.2065 12.1966 12.0708 12.2739 11.9L11.5905 11.591ZM14.2243 5.76513L14.9077 6.07408C15.0364 5.78946 14.9752 5.45488 14.7541 5.23424C14.533 5.0136 14.1983 4.9531 13.9139 5.08236L14.2243 5.76513ZM8.4085 8.40897L8.09812 7.72621C7.92794 7.80357 7.79278 7.9417 7.71914 8.11353L8.4085 8.40897ZM6.022 13.9774L5.33264 13.682C5.21184 13.9639 5.27481 14.2909 5.49167 14.5078C5.70852 14.7246 6.03555 14.7876 6.31743 14.6668L6.022 13.9774ZM18.25 10C18.25 14.5563 14.5563 18.25 10 18.25V19.75C15.3848 19.75 19.75 15.3848 19.75 10H18.25ZM10 18.25C5.44365 18.25 1.75 14.5563 1.75 10H0.25C0.25 15.3848 4.61522 19.75 10 19.75V18.25ZM1.75 10C1.75 5.44365 5.44365 1.75 10 1.75V0.25C4.61522 0.25 0.25 4.61522 0.25 10H1.75ZM10 1.75C14.5563 1.75 18.25 5.44365 18.25 10H19.75C19.75 4.61522 15.3848 0.25 10 0.25V1.75ZM12.2739 11.9L14.9077 6.07408L13.5409 5.45617L10.9071 11.2821L12.2739 11.9ZM13.9139 5.08236L8.09812 7.72621L8.71888 9.09173L14.5347 6.44789L13.9139 5.08236ZM7.71914 8.11353L5.33264 13.682L6.71136 14.2729L9.09786 8.70441L7.71914 8.11353ZM6.31743 14.6668L11.8859 12.2804L11.295 10.9017L5.72657 13.2881L6.31743 14.6668Z" fill="#009993"></path>
  </symbol>
  <symbol fill="none" xmlns="http://www.w3.org/2000/svg" viewBox="0 0 25 18" id="people">
    <path d="M22.7744 18C22.7744 18 24.2927 18 24.2927 16.5C24.2927 15 22.7744 10.5 16.7012 10.5C10.628 10.5 9.10976 15 9.10976 16.5C9.10976 18 10.628 18 10.628 18H22.7744ZM10.6615 16.5C10.6502 16.4985 10.6391 16.4965 10.628 16.494C10.6296 16.098 10.8816 14.949 11.782 13.914C12.62 12.9435 14.0928 12 16.7012 12C19.3081 12 20.7809 12.945 21.6205 13.914C22.5208 14.949 22.7714 16.0995 22.7744 16.494L22.7622 16.497C22.7552 16.4982 22.7481 16.4992 22.741 16.5H10.6615ZM16.7012 7.5C17.5066 7.5 18.2789 7.18393 18.8484 6.62132C19.4179 6.05871 19.7378 5.29565 19.7378 4.5C19.7378 3.70435 19.4179 2.94129 18.8484 2.37868C18.2789 1.81607 17.5066 1.5 16.7012 1.5C15.8959 1.5 15.1235 1.81607 14.554 2.37868C13.9846 2.94129 13.6646 3.70435 13.6646 4.5C13.6646 5.29565 13.9846 6.05871 14.554 6.62132C15.1235 7.18393 15.8959 7.5 16.7012 7.5ZM21.2561 4.5C21.2561 5.09095 21.1383 5.67611 20.9094 6.22208C20.6805 6.76804 20.345 7.26412 19.922 7.68198C19.499 8.09984 18.9969 8.43131 18.4443 8.65746C17.8917 8.8836 17.2994 9 16.7012 9C16.1031 9 15.5108 8.8836 14.9581 8.65746C14.4055 8.43131 13.9034 8.09984 13.4804 7.68198C13.0575 7.26412 12.722 6.76804 12.4931 6.22208C12.2642 5.67611 12.1463 5.09095 12.1463 4.5C12.1463 3.30653 12.6262 2.16193 13.4804 1.31802C14.3346 0.474106 15.4932 0 16.7012 0C17.9092 0 19.0678 0.474106 19.922 1.31802C20.7762 2.16193 21.2561 3.30653 21.2561 4.5ZM10.5309 10.92C9.92353 10.7311 9.29747 10.6069 8.66338 10.5495C8.30708 10.516 7.94937 10.4995 7.59146 10.5C1.51829 10.5 0 15 0 16.5C0 17.5005 0.505591 18 1.51829 18H7.91941C7.69434 17.5317 7.58209 17.0183 7.59146 16.5C7.59146 14.985 8.16386 13.437 9.2464 12.144C9.61535 11.703 10.045 11.2905 10.5309 10.92ZM7.47 12C6.5714 13.3339 6.08599 14.8977 6.07317 16.5H1.51829C1.51829 16.11 1.76729 14.955 2.67219 13.914C3.49966 12.96 4.93749 12.03 7.47 12.0015V12ZM2.27744 5.25C2.27744 4.05653 2.75733 2.91193 3.61153 2.06802C4.46574 1.22411 5.62429 0.75 6.83232 0.75C8.04035 0.75 9.1989 1.22411 10.0531 2.06802C10.9073 2.91193 11.3872 4.05653 11.3872 5.25C11.3872 6.44347 10.9073 7.58807 10.0531 8.43198C9.1989 9.27589 8.04035 9.75 6.83232 9.75C5.62429 9.75 4.46574 9.27589 3.61153 8.43198C2.75733 7.58807 2.27744 6.44347 2.27744 5.25ZM6.83232 2.25C6.02696 2.25 5.2546 2.56607 4.68513 3.12868C4.11566 3.69129 3.79573 4.45435 3.79573 5.25C3.79573 6.04565 4.11566 6.80871 4.68513 7.37132C5.2546 7.93393 6.02696 8.25 6.83232 8.25C7.63767 8.25 8.41004 7.93393 8.97951 7.37132C9.54898 6.80871 9.8689 6.04565 9.8689 5.25C9.8689 4.45435 9.54898 3.69129 8.97951 3.12868C8.41004 2.56607 7.63767 2.25 6.83232 2.25Z" fill="#009993"></path>
  </symbol>
  <symbol fill="none" xmlns="http://www.w3.org/2000/svg" viewBox="0 0 24 14" id="money">
    <path d="M16.5 13L22.5 7.75M7.5 13L1.5 7.75M16.5 1L22.5 6.25M7.5 1L1.5 6.25M2.25 1H21.75C22.1642 1 22.5 1.33579 22.5 1.75V12.25C22.5 12.6642 22.1642 13 21.75 13H2.25C1.83579 13 1.5 12.6642 1.5 12.25V1.75C1.5 1.33579 1.83579 1 2.25 1ZM15 7C15 8.65685 13.6569 10 12 10C10.3431 10 9 8.65685 9 7C9 5.34315 10.3431 4 12 4C13.6569 4 15 5.34315 15 7Z" stroke="#009993" stroke-width="1.5" stroke-linecap="round" stroke-linejoin="round"></path>
  </symbol>
</svg>