<svg width="0" height="0" class="hidden">
  <symbol fill="none" xmlns="http://www.w3.org/2000/svg" viewBox="0 0 21 16" id="Envelope">
    <path d="M19.2927 1.25L10.2927 9.5L1.29272 1.25M19.2927 1.25H1.29272M19.2927 1.25V14C19.2927 14.1989 19.2137 14.3897 19.0731 14.5303C18.9324 14.671 18.7416 14.75 18.5427 14.75H2.04272C1.84381 14.75 1.65305 14.671 1.51239 14.5303C1.37174 14.3897 1.29272 14.1989 1.29272 14V1.25M8.65636 8.00001L1.52399 14.5381M19.0616 14.5381L11.9291 7.99997" stroke="#8292A8" stroke-width="1.5" stroke-linecap="round" stroke-linejoin="round"></path>
  </symbol>
  <symbol fill="none" xmlns="http://www.w3.org/2000/svg" viewBox="0 0 21 20" id="CircleCheck">
    <circle cx="10.2927" cy="10" r="9.5" stroke="#8292A8"></circle>
    <path d="M15.2927 7L9.29272 12.9997L6.29272 10" stroke="#8292A8" stroke-linecap="round" stroke-linejoin="round"></path>
  </symbol>
  <symbol fill="none" xmlns="http://www.w3.org/2000/svg" viewBox="0 0 20 19" id="PhoneCall">
    <path d="M12.2381 1.74997C13.5095 2.09191 14.6688 2.76193 15.5998 3.69291C16.5308 4.62389 17.2008 5.78316 17.5427 7.05459M11.4615 4.64847C12.2243 4.85363 12.9199 5.25564 13.4785 5.81423C14.0371 6.37282 14.4391 7.06838 14.6442 7.83124M5.96238 9.7014C6.74035 11.2919 8.0296 12.5753 9.62363 13.346C9.74025 13.4013 9.86926 13.4252 9.99795 13.4155C10.1266 13.4058 10.2506 13.3627 10.3576 13.2905L12.7047 11.7254C12.8085 11.6562 12.9279 11.6139 13.0521 11.6025C13.1764 11.5911 13.3015 11.6109 13.4162 11.66L17.8072 13.5419C17.9563 13.6052 18.0809 13.7154 18.162 13.8556C18.2431 13.9959 18.2765 14.1588 18.257 14.3197C18.1182 15.4057 17.5883 16.4039 16.7666 17.1273C15.9448 17.8508 14.8876 18.2499 13.7927 18.25C10.4112 18.25 7.1682 16.9067 4.77711 14.5156C2.38602 12.1245 1.04272 8.88148 1.04272 5.49997C1.04278 4.40513 1.44191 3.34786 2.16536 2.5261C2.88882 1.70435 3.887 1.17448 4.97301 1.03569C5.13389 1.01622 5.29675 1.04956 5.43704 1.1307C5.57733 1.21183 5.68746 1.33636 5.75082 1.48552L7.63431 5.88032C7.68302 5.994 7.70287 6.11796 7.69209 6.24116C7.68131 6.36436 7.64022 6.48299 7.57249 6.58647L6.01283 8.96957C5.94185 9.07677 5.89988 9.20056 5.89104 9.32883C5.88219 9.4571 5.90677 9.58547 5.96238 9.7014Z" stroke="#8292A8" stroke-width="1.5" stroke-linecap="round" stroke-linejoin="round"></path>
  </symbol>
  <symbol fill="none" xmlns="http://www.w3.org/2000/svg" viewBox="0 0 21 20" id="Compass">
    <path d="M11.8832 11.591L12.1786 12.2804C12.351 12.2065 12.4894 12.0708 12.5666 11.9L11.8832 11.591ZM14.517 5.76513L15.2004 6.07408C15.3291 5.78946 15.2679 5.45488 15.0468 5.23424C14.8257 5.0136 14.491 4.9531 14.2066 5.08236L14.517 5.76513ZM8.70122 8.40897L8.39084 7.72621C8.22066 7.80357 8.08551 7.9417 8.01187 8.11353L8.70122 8.40897ZM6.31472 13.9774L5.62537 13.682C5.50456 13.9639 5.56754 14.2909 5.78439 14.5078C6.00124 14.7246 6.32827 14.7876 6.61016 14.6668L6.31472 13.9774ZM18.5427 10C18.5427 14.5563 14.8491 18.25 10.2927 18.25V19.75C15.6775 19.75 20.0427 15.3848 20.0427 10H18.5427ZM10.2927 18.25C5.73638 18.25 2.04272 14.5563 2.04272 10H0.542725C0.542725 15.3848 4.90795 19.75 10.2927 19.75V18.25ZM2.04272 10C2.04272 5.44365 5.73638 1.75 10.2927 1.75V0.25C4.90795 0.25 0.542725 4.61522 0.542725 10H2.04272ZM10.2927 1.75C14.8491 1.75 18.5427 5.44365 18.5427 10H20.0427C20.0427 4.61522 15.6775 0.25 10.2927 0.25V1.75ZM12.5666 11.9L15.2004 6.07408L13.8336 5.45617L11.1998 11.2821L12.5666 11.9ZM14.2066 5.08236L8.39084 7.72621L9.01161 9.09173L14.8274 6.44789L14.2066 5.08236ZM8.01187 8.11353L5.62537 13.682L7.00408 14.2729L9.39058 8.70441L8.01187 8.11353ZM6.61016 14.6668L12.1786 12.2804L11.5878 10.9017L6.01929 13.2881L6.61016 14.6668Z" fill="#8292A8"></path>
  </symbol>
  <symbol fill="none" xmlns="http://www.w3.org/2000/svg" viewBox="0 0 23 14" id="Money">
    <path d="M15.7927 13L21.7927 7.75M6.79272 13L0.792725 7.75M15.7927 1L21.7927 6.25M6.79272 1L0.792725 6.25M1.54272 1H21.0427C21.4569 1 21.7927 1.33579 21.7927 1.75V12.25C21.7927 12.6642 21.4569 13 21.0427 13H1.54272C1.12851 13 0.792725 12.6642 0.792725 12.25V1.75C0.792725 1.33579 1.12851 1 1.54272 1ZM14.2927 7C14.2927 8.65685 12.9496 10 11.2927 10C9.63587 10 8.29272 8.65685 8.29272 7C8.29272 5.34315 9.63587 4 11.2927 4C12.9496 4 14.2927 5.34315 14.2927 7Z" stroke="#8292A8" stroke-width="1.5" stroke-linecap="round" stroke-linejoin="round"></path>
  </symbol>
  <symbol fill="none" xmlns="http://www.w3.org/2000/svg" viewBox="0 0 23 14" id="Money__accent_dark_40">
    <path d="M15.7927 13L21.7927 7.75M6.79272 13L0.792725 7.75M15.7927 1L21.7927 6.25M6.79272 1L0.792725 6.25M1.54272 1H21.0427C21.4569 1 21.7927 1.33579 21.7927 1.75V12.25C21.7927 12.6642 21.4569 13 21.0427 13H1.54272C1.12851 13 0.792725 12.6642 0.792725 12.25V1.75C0.792725 1.33579 1.12851 1 1.54272 1ZM14.2927 7C14.2927 8.65685 12.9496 10 11.2927 10C9.63587 10 8.29272 8.65685 8.29272 7C8.29272 5.34315 9.63587 4 11.2927 4C12.9496 4 14.2927 5.34315 14.2927 7Z" stroke="#009993" stroke-width="1.5" stroke-linecap="round" stroke-linejoin="round"></path>
  </symbol>
  <symbol fill="none" xmlns="http://www.w3.org/2000/svg" viewBox="0 0 20 20" id="ArrowFlatRight">
    <path d="M10.0427 1L19.0427 10L10.0427 19V14.5H1.79272C1.59381 14.5 1.40305 14.421 1.26239 14.2803C1.12174 14.1397 1.04272 13.9489 1.04272 13.75V6.25C1.04272 6.05109 1.12174 5.86032 1.26239 5.71967C1.40305 5.57902 1.59381 5.5 1.79272 5.5H10.0427V1Z" stroke="#8292A8" stroke-width="1.5" stroke-linecap="round" stroke-linejoin="round"></path>
  </symbol>
  <symbol fill="none" xmlns="http://www.w3.org/2000/svg" viewBox="0 0 18 12" id="Check">
    <path d="M16.5427 0.750488L6.04272 11.25L0.792725 6.00049" stroke="#8292A8" stroke-width="1.5" stroke-linecap="round" stroke-linejoin="round"></path>
  </symbol>
  <symbol fill="none" xmlns="http://www.w3.org/2000/svg" viewBox="0 0 21 18" id="Camera">
    <path d="M17.7927 16.5H2.79272C2.3949 16.5 2.01337 16.342 1.73206 16.0607C1.45076 15.7794 1.29272 15.3978 1.29272 15V4.5C1.29272 4.10218 1.45076 3.72064 1.73206 3.43934C2.01337 3.15804 2.3949 3 2.79272 3H5.79218L7.29218 0.75H13.2922L14.7922 3H17.7927C18.1905 3 18.5721 3.15804 18.8534 3.43934C19.1347 3.72064 19.2927 4.10218 19.2927 4.5V15C19.2927 15.3978 19.1347 15.7794 18.8534 16.0607C18.5721 16.342 18.1905 16.5 17.7927 16.5Z" stroke="#8292A8" stroke-width="1.5" stroke-linecap="round" stroke-linejoin="round"></path>
    <path d="M10.2927 12.75C12.1567 12.75 13.6677 11.239 13.6677 9.375C13.6677 7.51104 12.1567 6 10.2927 6C8.42876 6 6.91772 7.51104 6.91772 9.375C6.91772 11.239 8.42876 12.75 10.2927 12.75Z" stroke="#8292A8" stroke-width="1.5" stroke-linecap="round" stroke-linejoin="round"></path>
  </symbol>
  <symbol fill="none" xmlns="http://www.w3.org/2000/svg" viewBox="0 0 17 18" id="SquaresFour">
    <path d="M15.7927 10.5H9.79272V16.5H15.7927V10.5Z" stroke="#8292A8" stroke-width="1.5" stroke-linecap="round" stroke-linejoin="round"></path>
    <path d="M6.79272 10.5H0.792725V16.5H6.79272V10.5Z" stroke="#8292A8" stroke-width="1.5" stroke-linecap="round" stroke-linejoin="round"></path>
    <path d="M15.7927 1.5H9.79272V7.5H15.7927V1.5Z" stroke="#8292A8" stroke-width="1.5" stroke-linecap="round" stroke-linejoin="round"></path>
    <path d="M6.79272 1.5H0.792725V7.5H6.79272V1.5Z" stroke="#8292A8" stroke-width="1.5" stroke-linecap="round" stroke-linejoin="round"></path>
  </symbol>
  <symbol fill="none" xmlns="http://www.w3.org/2000/svg" viewBox="0 0 25 18" id="People">
    <path d="M22.7744 18C22.7744 18 24.2927 18 24.2927 16.5C24.2927 15 22.7744 10.5 16.7012 10.5C10.628 10.5 9.10976 15 9.10976 16.5C9.10976 18 10.628 18 10.628 18H22.7744ZM10.6615 16.5C10.6502 16.4985 10.6391 16.4965 10.628 16.494C10.6296 16.098 10.8816 14.949 11.782 13.914C12.62 12.9435 14.0928 12 16.7012 12C19.3081 12 20.7809 12.945 21.6205 13.914C22.5208 14.949 22.7714 16.0995 22.7744 16.494L22.7622 16.497C22.7552 16.4982 22.7481 16.4992 22.741 16.5H10.6615ZM16.7012 7.5C17.5066 7.5 18.2789 7.18393 18.8484 6.62132C19.4179 6.05871 19.7378 5.29565 19.7378 4.5C19.7378 3.70435 19.4179 2.94129 18.8484 2.37868C18.2789 1.81607 17.5066 1.5 16.7012 1.5C15.8959 1.5 15.1235 1.81607 14.554 2.37868C13.9846 2.94129 13.6646 3.70435 13.6646 4.5C13.6646 5.29565 13.9846 6.05871 14.554 6.62132C15.1235 7.18393 15.8959 7.5 16.7012 7.5ZM21.2561 4.5C21.2561 5.09095 21.1383 5.67611 20.9094 6.22208C20.6805 6.76804 20.345 7.26412 19.922 7.68198C19.499 8.09984 18.9969 8.43131 18.4443 8.65746C17.8917 8.8836 17.2994 9 16.7012 9C16.1031 9 15.5108 8.8836 14.9581 8.65746C14.4055 8.43131 13.9034 8.09984 13.4804 7.68198C13.0575 7.26412 12.722 6.76804 12.4931 6.22208C12.2642 5.67611 12.1463 5.09095 12.1463 4.5C12.1463 3.30653 12.6262 2.16193 13.4804 1.31802C14.3346 0.474106 15.4932 0 16.7012 0C17.9092 0 19.0678 0.474106 19.922 1.31802C20.7762 2.16193 21.2561 3.30653 21.2561 4.5ZM10.5309 10.92C9.92353 10.7311 9.29747 10.6069 8.66338 10.5495C8.30708 10.516 7.94937 10.4995 7.59146 10.5C1.51829 10.5 0 15 0 16.5C0 17.5005 0.505591 18 1.51829 18H7.91941C7.69434 17.5317 7.58209 17.0183 7.59146 16.5C7.59146 14.985 8.16386 13.437 9.2464 12.144C9.61535 11.703 10.045 11.2905 10.5309 10.92ZM7.47 12C6.5714 13.3339 6.08599 14.8977 6.07317 16.5H1.51829C1.51829 16.11 1.76729 14.955 2.67219 13.914C3.49966 12.96 4.93749 12.03 7.47 12.0015V12ZM2.27744 5.25C2.27744 4.05653 2.75733 2.91193 3.61153 2.06802C4.46574 1.22411 5.62429 0.75 6.83232 0.75C8.04035 0.75 9.1989 1.22411 10.0531 2.06802C10.9073 2.91193 11.3872 4.05653 11.3872 5.25C11.3872 6.44347 10.9073 7.58807 10.0531 8.43198C9.1989 9.27589 8.04035 9.75 6.83232 9.75C5.62429 9.75 4.46574 9.27589 3.61153 8.43198C2.75733 7.58807 2.27744 6.44347 2.27744 5.25ZM6.83232 2.25C6.02696 2.25 5.2546 2.56607 4.68513 3.12868C4.11566 3.69129 3.79573 4.45435 3.79573 5.25C3.79573 6.04565 4.11566 6.80871 4.68513 7.37132C5.2546 7.93393 6.02696 8.25 6.83232 8.25C7.63767 8.25 8.41004 7.93393 8.97951 7.37132C9.54898 6.80871 9.8689 6.04565 9.8689 5.25C9.8689 4.45435 9.54898 3.69129 8.97951 3.12868C8.41004 2.56607 7.63767 2.25 6.83232 2.25Z" fill="#8292A8"></path>
  </symbol>
  <symbol fill="none" xmlns="http://www.w3.org/2000/svg" viewBox="0 0 24 24" id="Fuel">
    <g clip-path="url(#clip0_105_2551)">
      <path d="M13.4133 22.6668H3.93333C3.68232 22.6748 3.43225 22.6323 3.198 22.5418C2.96375 22.4512 2.75009 22.3145 2.56973 22.1398C2.38937 21.965 2.24599 21.7558 2.14811 21.5245C2.05024 21.2932 1.99987 21.0446 2 20.7934V3.2401C2.01911 2.72842 2.24041 2.24522 2.61536 1.89652C2.99031 1.54781 3.48828 1.36209 4 1.3801H13.48C13.7255 1.37461 13.9695 1.41901 14.1972 1.51062C14.425 1.60223 14.6318 1.73915 14.8051 1.91307C14.9784 2.08698 15.1146 2.29428 15.2054 2.52239C15.2962 2.7505 15.3397 2.99467 15.3333 3.2401V20.7934C15.3325 21.0432 15.2819 21.2902 15.1846 21.5202C15.0872 21.7501 14.945 21.9584 14.7662 22.1328C14.5875 22.3072 14.3758 22.4442 14.1435 22.5359C13.9112 22.6276 13.663 22.6721 13.4133 22.6668ZM3.93333 2.66677C3.85606 2.6641 3.77903 2.67691 3.70678 2.70444C3.63452 2.73197 3.5685 2.77367 3.5126 2.82709C3.4567 2.88051 3.41204 2.94456 3.38126 3.01549C3.35047 3.08642 3.33418 3.16279 3.33333 3.2401V20.7934C3.33333 20.9473 3.39444 21.0948 3.50321 21.2036C3.61198 21.3123 3.75951 21.3734 3.91333 21.3734H13.4133C13.5729 21.3756 13.7273 21.3168 13.845 21.209C13.9627 21.1012 14.0348 20.9526 14.0467 20.7934V3.2401C14.0332 3.08216 13.9604 2.93518 13.8428 2.82879C13.7253 2.72241 13.5718 2.66451 13.4133 2.66677H3.93333Z" fill="#8292A8"></path>
      <path d="M19.6867 22.6665C19.3786 22.6691 19.073 22.6107 18.7876 22.4947C18.5022 22.3786 18.2426 22.2071 18.0238 21.9902C17.805 21.7733 17.6314 21.5151 17.5128 21.2307C17.3943 20.9463 17.3333 20.6413 17.3333 20.3332V15.3332C17.3333 14.9795 17.1929 14.6404 16.9428 14.3904C16.6928 14.1403 16.3536 13.9998 16 13.9998H15.0467C14.8699 13.9998 14.7003 13.9296 14.5753 13.8046C14.4502 13.6796 14.38 13.51 14.38 13.3332C14.38 13.1564 14.4502 12.9868 14.5753 12.8618C14.7003 12.7367 14.8699 12.6665 15.0467 12.6665H16C16.7072 12.6665 17.3855 12.9475 17.8856 13.4476C18.3857 13.9477 18.6667 14.6259 18.6667 15.3332V20.3332C18.6667 20.5984 18.772 20.8527 18.9596 21.0403C19.1471 21.2278 19.4015 21.3332 19.6667 21.3332C19.9319 21.3332 20.1862 21.2278 20.3738 21.0403C20.5613 20.8527 20.6667 20.5984 20.6667 20.3332V11.5332L18.58 6.8665C18.4553 6.60645 18.2595 6.38703 18.0153 6.23365C17.7711 6.08027 17.4884 5.9992 17.2 5.99984H16.7133C16.5365 5.99984 16.367 5.9296 16.2419 5.80458C16.1169 5.67955 16.0467 5.50998 16.0467 5.33317C16.0467 5.15636 16.1169 4.98679 16.2419 4.86177C16.367 4.73674 16.5365 4.6665 16.7133 4.6665H17.2C17.7543 4.66622 18.2968 4.82665 18.7618 5.12837C19.2269 5.4301 19.5944 5.86017 19.82 6.3665L21.96 11.1398C21.9991 11.2257 22.0196 11.3188 22.02 11.4132V20.3332C22.02 20.952 21.7742 21.5455 21.3366 21.9831C20.899 22.4207 20.3055 22.6665 19.6867 22.6665Z" fill="#8292A8"></path>
      <path d="M12 5.99984H5.33329C5.15648 5.99984 4.98691 5.9296 4.86189 5.80457C4.73686 5.67955 4.66663 5.50998 4.66663 5.33317C4.66663 5.15636 4.73686 4.98679 4.86189 4.86177C4.98691 4.73674 5.15648 4.6665 5.33329 4.6665H12C12.1768 4.6665 12.3463 4.73674 12.4714 4.86177C12.5964 4.98679 12.6666 5.15636 12.6666 5.33317C12.6666 5.50998 12.5964 5.67955 12.4714 5.80457C12.3463 5.9296 12.1768 5.99984 12 5.99984Z" fill="#8292A8"></path>
      <path d="M12 8.66683H5.33329C5.15648 8.66683 4.98691 8.59659 4.86189 8.47157C4.73686 8.34654 4.66663 8.17697 4.66663 8.00016C4.66663 7.82335 4.73686 7.65378 4.86189 7.52876C4.98691 7.40373 5.15648 7.3335 5.33329 7.3335H12C12.1768 7.3335 12.3463 7.40373 12.4714 7.52876C12.5964 7.65378 12.6666 7.82335 12.6666 8.00016C12.6666 8.17697 12.5964 8.34654 12.4714 8.47157C12.3463 8.59659 12.1768 8.66683 12 8.66683Z" fill="#8292A8"></path>
      <path d="M16.6667 8.05355C16.4899 8.05355 16.3203 7.98331 16.1953 7.85829C16.0702 7.73326 16 7.56369 16 7.38688V3.38688C16 3.21007 16.0702 3.0405 16.1953 2.91548C16.3203 2.79045 16.4899 2.72021 16.6667 2.72021C16.8435 2.72021 17.013 2.79045 17.1381 2.91548C17.2631 3.0405 17.3333 3.21007 17.3333 3.38688V7.38688C17.3333 7.56369 17.2631 7.73326 17.1381 7.85829C17.013 7.98331 16.8435 8.05355 16.6667 8.05355Z" fill="#8292A8"></path>
    </g>
    <defs>
      <clipPath id="clip0_105_2551">
        <rect width="24" height="24" fill="white"></rect>
      </clipPath>
    </defs>
  </symbol>
  <symbol fill="none" xmlns="http://www.w3.org/2000/svg" viewBox="0 0 24 24" id="AllWheelDrive">
    <g clip-path="url(#clip0_103_2671)">
      <path d="M2 1.75H4V0.25H2V1.75ZM4.25 2V7H5.75V2H4.25ZM4 7.25H2V8.75H4V7.25ZM1.75 7V2H0.25V7H1.75ZM2 7.25C1.86193 7.25 1.75 7.13807 1.75 7H0.25C0.25 7.9665 1.0335 8.75 2 8.75V7.25ZM4.25 7C4.25 7.13807 4.13807 7.25 4 7.25V8.75C4.9665 8.75 5.75 7.9665 5.75 7H4.25ZM4 1.75C4.13807 1.75 4.25 1.86193 4.25 2H5.75C5.75 1.0335 4.9665 0.25 4 0.25V1.75ZM2 0.25C1.0335 0.25 0.25 1.0335 0.25 2H1.75C1.75 1.86193 1.86193 1.75 2 1.75V0.25Z" fill="#8292A8"></path>
      <path d="M2 16.75H4V15.25H2V16.75ZM4.25 17V22H5.75V17H4.25ZM4 22.25H2V23.75H4V22.25ZM1.75 22V17H0.25V22H1.75ZM2 22.25C1.86193 22.25 1.75 22.1381 1.75 22H0.25C0.25 22.9665 1.0335 23.75 2 23.75V22.25ZM4.25 22C4.25 22.1381 4.13807 22.25 4 22.25V23.75C4.9665 23.75 5.75 22.9665 5.75 22H4.25ZM4 16.75C4.13807 16.75 4.25 16.8619 4.25 17H5.75C5.75 16.0335 4.9665 15.25 4 15.25V16.75ZM2 15.25C1.0335 15.25 0.25 16.0335 0.25 17H1.75C1.75 16.8619 1.86193 16.75 2 16.75V15.25Z" fill="#8292A8"></path>
      <path d="M20 1.75H22V0.25H20V1.75ZM22.25 2V7H23.75V2H22.25ZM22 7.25H20V8.75H22V7.25ZM19.75 7V2H18.25V7H19.75ZM20 7.25C19.8619 7.25 19.75 7.13807 19.75 7H18.25C18.25 7.9665 19.0335 8.75 20 8.75V7.25ZM22.25 7C22.25 7.13807 22.1381 7.25 22 7.25V8.75C22.9665 8.75 23.75 7.9665 23.75 7H22.25ZM22 1.75C22.1381 1.75 22.25 1.86193 22.25 2H23.75C23.75 1.0335 22.9665 0.25 22 0.25V1.75ZM20 0.25C19.0335 0.25 18.25 1.0335 18.25 2H19.75C19.75 1.86193 19.8619 1.75 20 1.75V0.25Z" fill="#8292A8"></path>
      <path d="M20 16.75H22V15.25H20V16.75ZM22.25 17V22H23.75V17H22.25ZM22 22.25H20V23.75H22V22.25ZM19.75 22V17H18.25V22H19.75ZM20 22.25C19.8619 22.25 19.75 22.1381 19.75 22H18.25C18.25 22.9665 19.0335 23.75 20 23.75V22.25ZM22.25 22C22.25 22.1381 22.1381 22.25 22 22.25V23.75C22.9665 23.75 23.75 22.9665 23.75 22H22.25ZM22 16.75C22.1381 16.75 22.25 16.8619 22.25 17H23.75C23.75 16.0335 22.9665 15.25 22 15.25V16.75ZM20 15.25C19.0335 15.25 18.25 16.0335 18.25 17H19.75C19.75 16.8619 19.8619 16.75 20 16.75V15.25Z" fill="#8292A8"></path>
      <path d="M19 20.25C19.4142 20.25 19.75 19.9142 19.75 19.5C19.75 19.0858 19.4142 18.75 19 18.75V20.25ZM5 18.75C4.58579 18.75 4.25 19.0858 4.25 19.5C4.25 19.9142 4.58579 20.25 5 20.25V18.75ZM5 20.25H19V18.75H5V20.25Z" fill="#8292A8"></path>
      <path d="M10 1.25C9.58579 1.25 9.25 1.58579 9.25 2C9.25 2.41421 9.58579 2.75 10 2.75V1.25ZM14 2.75C14.4142 2.75 14.75 2.41421 14.75 2C14.75 1.58579 14.4142 1.25 14 1.25V2.75ZM10 2.75H14V1.25H10V2.75Z" fill="#8292A8"></path>
      <path d="M10 21.25C9.58579 21.25 9.25 21.5858 9.25 22C9.25 22.4142 9.58579 22.75 10 22.75V21.25ZM14 22.75C14.4142 22.75 14.75 22.4142 14.75 22C14.75 21.5858 14.4142 21.25 14 21.25V22.75ZM10 22.75H14V21.25H10V22.75Z" fill="#8292A8"></path>
      <path d="M12.75 4.5C12.75 4.08579 12.4142 3.75 12 3.75C11.5858 3.75 11.25 4.08579 11.25 4.5H12.75ZM11.25 19.5C11.25 19.9142 11.5858 20.25 12 20.25C12.4142 20.25 12.75 19.9142 12.75 19.5H11.25ZM11.25 4.5V19.5H12.75V4.5H11.25Z" fill="#8292A8"></path>
      <path d="M19 5.25C19.4142 5.25 19.75 4.91421 19.75 4.5C19.75 4.08579 19.4142 3.75 19 3.75V5.25ZM5 3.75C4.58579 3.75 4.25 4.08579 4.25 4.5C4.25 4.91421 4.58579 5.25 5 5.25V3.75ZM5 5.25H19V3.75H5V5.25Z" fill="#8292A8"></path>
    </g>
    <defs>
      <clipPath id="clip0_103_2671">
        <rect width="24" height="24" fill="white"></rect>
      </clipPath>
    </defs>
  </symbol>
  <symbol fill="none" xmlns="http://www.w3.org/2000/svg" viewBox="0 0 24 17" id="Car">
    <path fill-rule="evenodd" clip-rule="evenodd" d="M6.93514 0.0723495C6.79328 0.110195 6.55059 0.200706 6.39583 0.27349C6.24107 0.346274 5.98538 0.503472 5.82762 0.622872C5.66986 0.742271 5.4525 0.954386 5.34463 1.09423C5.23597 1.23506 4.9651 1.746 4.73751 2.23941C4.51151 2.72943 4.24757 3.26424 4.15101 3.42796C4.05445 3.59168 3.92394 3.78893 3.861 3.86631L3.74662 4.007L3.74639 3.61799C3.74615 3.26762 3.73471 3.21749 3.63102 3.11385L3.51594 2.99871H2.43304H1.35015L1.23506 3.11385C1.12312 3.22574 1.11993 3.24825 1.11993 3.92933C1.11993 4.53163 1.13165 4.64418 1.20359 4.73305C1.27052 4.81564 1.42349 4.86385 1.96567 4.97317C2.33878 5.04839 2.66284 5.11597 2.68577 5.12338C2.7087 5.13078 2.377 5.4169 1.94869 5.7592C1.52033 6.1015 1.07191 6.49056 0.952086 6.62379C0.832311 6.75703 0.644161 7.02007 0.533953 7.20832C0.423746 7.39656 0.262514 7.7557 0.175708 8.00641L0.0178534 8.4622L0.00387814 11.9795C-0.00681435 14.6735 0.00354985 15.5461 0.0481957 15.7078C0.0885739 15.8541 0.179132 15.9912 0.343552 16.1549C0.492356 16.3031 0.652462 16.4122 0.773643 16.448C0.909222 16.488 1.45913 16.505 2.62063 16.505C3.78212 16.505 4.33204 16.488 4.46761 16.448C4.58922 16.4121 4.74796 16.3036 4.89672 16.1549C5.04543 16.0061 5.1539 15.8474 5.18983 15.7258C5.2212 15.6196 5.24685 15.3294 5.24685 15.0809V14.6291H12H18.7531V15.0809C18.7531 15.3294 18.7788 15.6196 18.8102 15.7258C18.8461 15.8474 18.9546 16.0061 19.1033 16.1549C19.252 16.3036 19.4108 16.4121 19.5324 16.448C19.668 16.488 20.2179 16.505 21.3794 16.505C22.5409 16.505 23.0908 16.488 23.2264 16.448C23.3475 16.4122 23.5076 16.3031 23.6564 16.1549C23.8209 15.9912 23.9114 15.8541 23.9518 15.7078C23.9965 15.5461 24.0068 14.6735 23.9961 11.9795L23.9821 8.4622L23.8243 8.00641C23.7375 7.7557 23.5763 7.39656 23.466 7.20832C23.3558 7.02007 23.1677 6.75703 23.0479 6.62379C22.9281 6.49056 22.4796 6.10141 22.0511 5.75902L21.2721 5.13651L21.9893 4.99028C22.5761 4.87065 22.7223 4.82455 22.7933 4.7369C22.8691 4.64329 22.8801 4.54096 22.8801 3.92933C22.8801 3.24825 22.8769 3.22574 22.7649 3.11385L22.6499 2.99871H21.567H20.4841L20.369 3.11385C20.2653 3.21749 20.2538 3.26762 20.2536 3.61799L20.2534 4.007L20.139 3.86631C20.0761 3.78893 19.9455 3.59168 19.849 3.42796C19.7524 3.26424 19.4885 2.72943 19.2625 2.23941C19.0349 1.746 18.764 1.23506 18.6554 1.09423C18.5475 0.954386 18.3301 0.742271 18.1724 0.622872C18.0146 0.503472 17.7589 0.346368 17.6042 0.273725C17.4494 0.201081 17.197 0.109164 17.0433 0.0694889C16.8002 0.00674093 16.1399 -0.00226324 11.9784 0.000409877C7.92659 0.0030361 7.15354 0.0140567 6.93514 0.0723495ZM17.2263 0.92531C17.4054 1.0101 17.6429 1.15398 17.754 1.24501C17.8651 1.33603 18.0095 1.48071 18.0749 1.56648C18.1403 1.65221 18.3952 2.15204 18.6414 2.67709C18.8875 3.2022 19.1 3.65822 19.1136 3.69044C19.1333 3.7372 17.6926 3.74906 12 3.74906C6.30738 3.74906 4.86666 3.7372 4.88636 3.69044C4.89996 3.65822 5.11249 3.2022 5.35861 2.67709C5.60477 2.15204 5.8597 1.65221 5.92512 1.56648C5.99054 1.48071 6.13377 1.33777 6.24341 1.24876C6.35301 1.15979 6.55345 1.03144 6.68874 0.96353C6.82404 0.895624 7.01397 0.821152 7.11082 0.798031C7.20977 0.774395 9.39225 0.759295 12.0938 0.763562L16.9007 0.771113L17.2263 0.92531ZM2.9958 4.08283C2.9958 4.39985 2.99083 4.41523 2.89629 4.39052C2.84161 4.37621 2.58836 4.32669 2.33353 4.2804L1.87028 4.19632V3.97267V3.74906H2.43304H2.9958V4.08283ZM22.1297 3.97445V4.19984L21.6959 4.28289C21.4574 4.32857 21.2041 4.37753 21.1332 4.39164L21.0042 4.41734V4.0832V3.74906H21.567H22.1297V3.97445ZM19.8473 4.72217C19.9375 4.84471 20.2084 5.13627 20.4492 5.3701C20.6899 5.60393 20.9671 5.85515 21.065 5.92836C21.1629 6.00157 21.2262 6.07763 21.2057 6.09738C21.1851 6.11717 20.5774 6.36858 19.8552 6.65606L18.5421 7.17877L18.0021 7.71499L17.4621 8.25116H15.2167H12.9712L12.4856 8.72904L12 9.20692L11.5144 8.72904L11.0288 8.25116H8.78335H6.53792L5.99791 7.71499L5.45789 7.17877L4.14478 6.65606C3.42256 6.36858 2.81488 6.11717 2.79433 6.09738C2.77379 6.07763 2.8371 6.00157 2.93503 5.92836C3.03295 5.85515 3.31006 5.60393 3.55083 5.3701C3.7916 5.13627 4.06247 4.84471 4.15275 4.72217L4.31689 4.49941H12H19.6831L19.8473 4.72217ZM3.55857 7.22628C4.34526 7.53964 5.00899 7.81404 5.03352 7.83608C5.06053 7.86028 5.00576 7.95032 4.89508 8.06362L4.71195 8.25116H3.25008C2.44603 8.25116 1.72152 8.23784 1.63997 8.22152C1.55846 8.2052 1.43039 8.13458 1.35545 8.06451C1.28046 7.99449 1.20448 7.87899 1.18662 7.80785C1.16636 7.72699 1.18057 7.62321 1.2246 7.53101C1.26334 7.44993 1.37078 7.29296 1.4634 7.18224C1.55598 7.07152 1.71908 6.90794 1.82582 6.81879C1.93251 6.72964 2.04422 6.65662 2.07405 6.65657C2.10383 6.65653 2.77187 6.91291 3.55857 7.22628ZM22.1742 6.81879C22.2809 6.90794 22.444 7.07152 22.5366 7.18224C22.6292 7.29296 22.7367 7.44993 22.7754 7.53101C22.8194 7.62321 22.8336 7.72699 22.8134 7.80785C22.7955 7.87899 22.7195 7.99449 22.6446 8.06451C22.5696 8.13458 22.4415 8.2052 22.36 8.22152C22.2785 8.23784 21.554 8.25116 20.7499 8.25116H19.2881L19.1057 8.06442C19.0055 7.96171 18.939 7.86206 18.9581 7.84292C18.9773 7.82384 19.6301 7.55104 20.4089 7.23674C21.1877 6.92243 21.8598 6.66333 21.9025 6.66098C21.9452 6.65859 22.0675 6.72964 22.1742 6.81879ZM5.93056 8.72013L6.22357 9.00151H8.46468H10.7057L11.275 9.56427C11.7725 10.0562 11.8639 10.127 12 10.127C12.1361 10.127 12.2275 10.0562 12.725 9.56427L13.2943 9.00151H15.5353H17.7764L18.0772 8.71267L18.378 8.42388L18.6814 8.71525L18.9849 9.00662L20.78 8.99152C22.3488 8.97834 22.5967 8.96638 22.7454 8.89693C22.839 8.85318 22.9791 8.76403 23.0566 8.69879L23.1976 8.58014L23.2258 8.68533C23.2413 8.74316 23.2543 9.09122 23.2546 9.45876L23.2552 10.127H22.2185C21.4251 10.127 21.1143 10.1445 20.8937 10.2013C20.7352 10.2422 20.4805 10.3421 20.3277 10.4233C20.1748 10.5045 19.9796 10.6371 19.8939 10.718C19.7782 10.8271 19.738 10.9051 19.738 11.0206C19.738 11.1158 19.7776 11.2183 19.8399 11.2847C19.906 11.355 19.9956 11.3933 20.0943 11.3933C20.1886 11.3933 20.3 11.3483 20.3868 11.2753C20.4639 11.2104 20.6502 11.1002 20.8008 11.0304C21.0358 10.9214 21.15 10.9008 21.6077 10.8852L22.1409 10.8669L22.1221 11.1989C22.1086 11.4379 22.0767 11.5667 22.0081 11.6585C21.9557 11.7287 21.8547 11.8296 21.7836 11.8828C21.6683 11.969 21.5677 11.982 20.856 12.0029C20.0872 12.0255 20.0544 12.0304 19.9682 12.1371C19.919 12.198 19.8787 12.3097 19.8787 12.3854C19.8787 12.4704 19.9244 12.5688 19.9983 12.6427L20.1179 12.7623L20.948 12.7447C21.7386 12.7279 21.7893 12.7211 22.0175 12.6021C22.1493 12.5333 22.3198 12.4242 22.3966 12.3597C22.4733 12.2951 22.6054 12.1122 22.6902 11.9532C22.8181 11.7133 22.8484 11.5975 22.8688 11.2708L22.8933 10.8774H23.0743H23.2552V11.892C23.2552 12.5515 23.2353 12.9741 23.1982 13.0995C23.1623 13.2212 23.0538 13.3799 22.9051 13.5287C22.7564 13.6774 22.5976 13.7858 22.476 13.8218C22.3422 13.8613 21.8255 13.8788 20.7916 13.8788H19.3001L18.757 13.3502C18.4041 13.0068 18.1153 12.77 17.9325 12.6741C17.7777 12.5931 17.5214 12.4932 17.3629 12.4524C17.1085 12.3868 16.47 12.3781 11.9062 12.3781C7.34239 12.3781 6.70394 12.3868 6.44948 12.4524C6.29101 12.4932 6.03472 12.5931 5.87996 12.6741C5.69716 12.77 5.40832 13.0068 5.05542 13.3502L4.51231 13.8788H3.11464C2.15438 13.8788 1.65662 13.8609 1.52399 13.8218C1.40239 13.7858 1.24364 13.6774 1.09489 13.5287C0.946177 13.3799 0.837704 13.2212 0.801781 13.0995C0.764733 12.9741 0.744755 12.5515 0.744755 11.892V10.8774H0.92573H1.1067L1.13095 11.2661C1.14905 11.5562 1.18577 11.7151 1.27567 11.8925C1.34189 12.0233 1.44896 12.193 1.51353 12.2698C1.57811 12.3465 1.76396 12.4813 1.92651 12.5692L2.22201 12.7291L3.05203 12.7457L3.88206 12.7623L4.00169 12.6427C4.0756 12.5688 4.12133 12.4704 4.12133 12.3854C4.12133 12.3097 4.08104 12.198 4.0318 12.1371C3.94561 12.0304 3.91278 12.0255 3.14404 12.0029C2.43234 11.982 2.33174 11.969 2.21642 11.8828C2.14533 11.8296 2.04427 11.7287 1.99188 11.6585C1.92332 11.5667 1.89138 11.4379 1.87788 11.1989L1.85912 10.8669L2.39229 10.8852C2.85 10.9008 2.9642 10.9214 3.19924 11.0304C3.34978 11.1002 3.53606 11.2104 3.61315 11.2753C3.69715 11.3459 3.81181 11.3933 3.89913 11.3933C3.9843 11.3933 4.09009 11.3509 4.1535 11.2913C4.22633 11.2228 4.26202 11.136 4.26202 11.0272C4.26202 10.9042 4.22431 10.8295 4.10613 10.718C4.02041 10.6371 3.82517 10.5045 3.67234 10.4233C3.5195 10.3421 3.26476 10.2422 3.10629 10.2013C2.88574 10.1445 2.5749 10.127 1.78146 10.127H0.744755L0.745411 9.45876C0.74574 9.09122 0.75873 8.74316 0.774206 8.68533L0.802391 8.58014L0.943363 8.69879C1.02093 8.76403 1.16096 8.85318 1.25457 8.89693C1.40328 8.96638 1.65122 8.97834 3.22058 8.99152L5.0164 9.00667L5.30749 8.7236C5.4676 8.5679 5.60735 8.44011 5.61804 8.43964C5.62873 8.43917 5.76938 8.56537 5.93056 8.72013ZM17.4686 13.2843C17.6327 13.3602 17.8525 13.5155 17.9828 13.6478L18.2103 13.8788H11.9064H5.60252L5.81158 13.6639C5.92658 13.5457 6.10507 13.405 6.20824 13.3513C6.31141 13.2976 6.48024 13.2267 6.58341 13.1938C6.73165 13.1464 7.86229 13.1358 11.9766 13.1429L17.1821 13.1519L17.4686 13.2843ZM2.95749 14.6203L4.4965 14.6349V15.0797C4.4965 15.4894 4.4874 15.5335 4.38137 15.6395L4.26629 15.7547H2.62063H0.974971L0.859886 15.6395C0.749116 15.5288 0.744755 15.5006 0.744755 14.8978V14.2711L1.08161 14.4384L1.41847 14.6057L2.95749 14.6203ZM23.2552 14.8892C23.2552 15.5011 23.251 15.5287 23.1401 15.6395L23.025 15.7547H21.3794H19.7337L19.6186 15.6395C19.5126 15.5335 19.5035 15.4894 19.5035 15.0797V14.6349L21.0406 14.6203L22.5778 14.6057L22.9048 14.437C23.0846 14.3442 23.2371 14.265 23.2435 14.2611C23.2499 14.2572 23.2552 14.5398 23.2552 14.8892Z" fill="#8292A8"></path>
  </symbol>
  <symbol fill="none" xmlns="http://www.w3.org/2000/svg" viewBox="0 0 24 17" id="Car_accent_dark_40">
    <path fill-rule="evenodd" clip-rule="evenodd" d="M6.93514 0.0723495C6.79328 0.110195 6.55059 0.200706 6.39583 0.27349C6.24107 0.346274 5.98538 0.503472 5.82762 0.622872C5.66986 0.742271 5.4525 0.954386 5.34463 1.09423C5.23597 1.23506 4.9651 1.746 4.73751 2.23941C4.51151 2.72943 4.24757 3.26424 4.15101 3.42796C4.05445 3.59168 3.92394 3.78893 3.861 3.86631L3.74662 4.007L3.74639 3.61799C3.74615 3.26762 3.73471 3.21749 3.63102 3.11385L3.51594 2.99871H2.43304H1.35015L1.23506 3.11385C1.12312 3.22574 1.11993 3.24825 1.11993 3.92933C1.11993 4.53163 1.13165 4.64418 1.20359 4.73305C1.27052 4.81564 1.42349 4.86385 1.96567 4.97317C2.33878 5.04839 2.66284 5.11597 2.68577 5.12338C2.7087 5.13078 2.377 5.4169 1.94869 5.7592C1.52033 6.1015 1.07191 6.49056 0.952086 6.62379C0.832311 6.75703 0.644161 7.02007 0.533953 7.20832C0.423746 7.39656 0.262514 7.7557 0.175708 8.00641L0.0178534 8.4622L0.00387814 11.9795C-0.00681435 14.6735 0.00354985 15.5461 0.0481957 15.7078C0.0885739 15.8541 0.179132 15.9912 0.343552 16.1549C0.492356 16.3031 0.652462 16.4122 0.773643 16.448C0.909222 16.488 1.45913 16.505 2.62063 16.505C3.78212 16.505 4.33204 16.488 4.46761 16.448C4.58922 16.4121 4.74796 16.3036 4.89672 16.1549C5.04543 16.0061 5.1539 15.8474 5.18983 15.7258C5.2212 15.6196 5.24685 15.3294 5.24685 15.0809V14.6291H12H18.7531V15.0809C18.7531 15.3294 18.7788 15.6196 18.8102 15.7258C18.8461 15.8474 18.9546 16.0061 19.1033 16.1549C19.252 16.3036 19.4108 16.4121 19.5324 16.448C19.668 16.488 20.2179 16.505 21.3794 16.505C22.5409 16.505 23.0908 16.488 23.2264 16.448C23.3475 16.4122 23.5076 16.3031 23.6564 16.1549C23.8209 15.9912 23.9114 15.8541 23.9518 15.7078C23.9965 15.5461 24.0068 14.6735 23.9961 11.9795L23.9821 8.4622L23.8243 8.00641C23.7375 7.7557 23.5763 7.39656 23.466 7.20832C23.3558 7.02007 23.1677 6.75703 23.0479 6.62379C22.9281 6.49056 22.4796 6.10141 22.0511 5.75902L21.2721 5.13651L21.9893 4.99028C22.5761 4.87065 22.7223 4.82455 22.7933 4.7369C22.8691 4.64329 22.8801 4.54096 22.8801 3.92933C22.8801 3.24825 22.8769 3.22574 22.7649 3.11385L22.6499 2.99871H21.567H20.4841L20.369 3.11385C20.2653 3.21749 20.2538 3.26762 20.2536 3.61799L20.2534 4.007L20.139 3.86631C20.0761 3.78893 19.9455 3.59168 19.849 3.42796C19.7524 3.26424 19.4885 2.72943 19.2625 2.23941C19.0349 1.746 18.764 1.23506 18.6554 1.09423C18.5475 0.954386 18.3301 0.742271 18.1724 0.622872C18.0146 0.503472 17.7589 0.346368 17.6042 0.273725C17.4494 0.201081 17.197 0.109164 17.0433 0.0694889C16.8002 0.00674093 16.1399 -0.00226324 11.9784 0.000409877C7.92659 0.0030361 7.15354 0.0140567 6.93514 0.0723495ZM17.2263 0.92531C17.4054 1.0101 17.6429 1.15398 17.754 1.24501C17.8651 1.33603 18.0095 1.48071 18.0749 1.56648C18.1403 1.65221 18.3952 2.15204 18.6414 2.67709C18.8875 3.2022 19.1 3.65822 19.1136 3.69044C19.1333 3.7372 17.6926 3.74906 12 3.74906C6.30738 3.74906 4.86666 3.7372 4.88636 3.69044C4.89996 3.65822 5.11249 3.2022 5.35861 2.67709C5.60477 2.15204 5.8597 1.65221 5.92512 1.56648C5.99054 1.48071 6.13377 1.33777 6.24341 1.24876C6.35301 1.15979 6.55345 1.03144 6.68874 0.96353C6.82404 0.895624 7.01397 0.821152 7.11082 0.798031C7.20977 0.774395 9.39225 0.759295 12.0938 0.763562L16.9007 0.771113L17.2263 0.92531ZM2.9958 4.08283C2.9958 4.39985 2.99083 4.41523 2.89629 4.39052C2.84161 4.37621 2.58836 4.32669 2.33353 4.2804L1.87028 4.19632V3.97267V3.74906H2.43304H2.9958V4.08283ZM22.1297 3.97445V4.19984L21.6959 4.28289C21.4574 4.32857 21.2041 4.37753 21.1332 4.39164L21.0042 4.41734V4.0832V3.74906H21.567H22.1297V3.97445ZM19.8473 4.72217C19.9375 4.84471 20.2084 5.13627 20.4492 5.3701C20.6899 5.60393 20.9671 5.85515 21.065 5.92836C21.1629 6.00157 21.2262 6.07763 21.2057 6.09738C21.1851 6.11717 20.5774 6.36858 19.8552 6.65606L18.5421 7.17877L18.0021 7.71499L17.4621 8.25116H15.2167H12.9712L12.4856 8.72904L12 9.20692L11.5144 8.72904L11.0288 8.25116H8.78335H6.53792L5.99791 7.71499L5.45789 7.17877L4.14478 6.65606C3.42256 6.36858 2.81488 6.11717 2.79433 6.09738C2.77379 6.07763 2.8371 6.00157 2.93503 5.92836C3.03295 5.85515 3.31006 5.60393 3.55083 5.3701C3.7916 5.13627 4.06247 4.84471 4.15275 4.72217L4.31689 4.49941H12H19.6831L19.8473 4.72217ZM3.55857 7.22628C4.34526 7.53964 5.00899 7.81404 5.03352 7.83608C5.06053 7.86028 5.00576 7.95032 4.89508 8.06362L4.71195 8.25116H3.25008C2.44603 8.25116 1.72152 8.23784 1.63997 8.22152C1.55846 8.2052 1.43039 8.13458 1.35545 8.06451C1.28046 7.99449 1.20448 7.87899 1.18662 7.80785C1.16636 7.72699 1.18057 7.62321 1.2246 7.53101C1.26334 7.44993 1.37078 7.29296 1.4634 7.18224C1.55598 7.07152 1.71908 6.90794 1.82582 6.81879C1.93251 6.72964 2.04422 6.65662 2.07405 6.65657C2.10383 6.65653 2.77187 6.91291 3.55857 7.22628ZM22.1742 6.81879C22.2809 6.90794 22.444 7.07152 22.5366 7.18224C22.6292 7.29296 22.7367 7.44993 22.7754 7.53101C22.8194 7.62321 22.8336 7.72699 22.8134 7.80785C22.7955 7.87899 22.7195 7.99449 22.6446 8.06451C22.5696 8.13458 22.4415 8.2052 22.36 8.22152C22.2785 8.23784 21.554 8.25116 20.7499 8.25116H19.2881L19.1057 8.06442C19.0055 7.96171 18.939 7.86206 18.9581 7.84292C18.9773 7.82384 19.6301 7.55104 20.4089 7.23674C21.1877 6.92243 21.8598 6.66333 21.9025 6.66098C21.9452 6.65859 22.0675 6.72964 22.1742 6.81879ZM5.93056 8.72013L6.22357 9.00151H8.46468H10.7057L11.275 9.56427C11.7725 10.0562 11.8639 10.127 12 10.127C12.1361 10.127 12.2275 10.0562 12.725 9.56427L13.2943 9.00151H15.5353H17.7764L18.0772 8.71267L18.378 8.42388L18.6814 8.71525L18.9849 9.00662L20.78 8.99152C22.3488 8.97834 22.5967 8.96638 22.7454 8.89693C22.839 8.85318 22.9791 8.76403 23.0566 8.69879L23.1976 8.58014L23.2258 8.68533C23.2413 8.74316 23.2543 9.09122 23.2546 9.45876L23.2552 10.127H22.2185C21.4251 10.127 21.1143 10.1445 20.8937 10.2013C20.7352 10.2422 20.4805 10.3421 20.3277 10.4233C20.1748 10.5045 19.9796 10.6371 19.8939 10.718C19.7782 10.8271 19.738 10.9051 19.738 11.0206C19.738 11.1158 19.7776 11.2183 19.8399 11.2847C19.906 11.355 19.9956 11.3933 20.0943 11.3933C20.1886 11.3933 20.3 11.3483 20.3868 11.2753C20.4639 11.2104 20.6502 11.1002 20.8008 11.0304C21.0358 10.9214 21.15 10.9008 21.6077 10.8852L22.1409 10.8669L22.1221 11.1989C22.1086 11.4379 22.0767 11.5667 22.0081 11.6585C21.9557 11.7287 21.8547 11.8296 21.7836 11.8828C21.6683 11.969 21.5677 11.982 20.856 12.0029C20.0872 12.0255 20.0544 12.0304 19.9682 12.1371C19.919 12.198 19.8787 12.3097 19.8787 12.3854C19.8787 12.4704 19.9244 12.5688 19.9983 12.6427L20.1179 12.7623L20.948 12.7447C21.7386 12.7279 21.7893 12.7211 22.0175 12.6021C22.1493 12.5333 22.3198 12.4242 22.3966 12.3597C22.4733 12.2951 22.6054 12.1122 22.6902 11.9532C22.8181 11.7133 22.8484 11.5975 22.8688 11.2708L22.8933 10.8774H23.0743H23.2552V11.892C23.2552 12.5515 23.2353 12.9741 23.1982 13.0995C23.1623 13.2212 23.0538 13.3799 22.9051 13.5287C22.7564 13.6774 22.5976 13.7858 22.476 13.8218C22.3422 13.8613 21.8255 13.8788 20.7916 13.8788H19.3001L18.757 13.3502C18.4041 13.0068 18.1153 12.77 17.9325 12.6741C17.7777 12.5931 17.5214 12.4932 17.3629 12.4524C17.1085 12.3868 16.47 12.3781 11.9062 12.3781C7.34239 12.3781 6.70394 12.3868 6.44948 12.4524C6.29101 12.4932 6.03472 12.5931 5.87996 12.6741C5.69716 12.77 5.40832 13.0068 5.05542 13.3502L4.51231 13.8788H3.11464C2.15438 13.8788 1.65662 13.8609 1.52399 13.8218C1.40239 13.7858 1.24364 13.6774 1.09489 13.5287C0.946177 13.3799 0.837704 13.2212 0.801781 13.0995C0.764733 12.9741 0.744755 12.5515 0.744755 11.892V10.8774H0.92573H1.1067L1.13095 11.2661C1.14905 11.5562 1.18577 11.7151 1.27567 11.8925C1.34189 12.0233 1.44896 12.193 1.51353 12.2698C1.57811 12.3465 1.76396 12.4813 1.92651 12.5692L2.22201 12.7291L3.05203 12.7457L3.88206 12.7623L4.00169 12.6427C4.0756 12.5688 4.12133 12.4704 4.12133 12.3854C4.12133 12.3097 4.08104 12.198 4.0318 12.1371C3.94561 12.0304 3.91278 12.0255 3.14404 12.0029C2.43234 11.982 2.33174 11.969 2.21642 11.8828C2.14533 11.8296 2.04427 11.7287 1.99188 11.6585C1.92332 11.5667 1.89138 11.4379 1.87788 11.1989L1.85912 10.8669L2.39229 10.8852C2.85 10.9008 2.9642 10.9214 3.19924 11.0304C3.34978 11.1002 3.53606 11.2104 3.61315 11.2753C3.69715 11.3459 3.81181 11.3933 3.89913 11.3933C3.9843 11.3933 4.09009 11.3509 4.1535 11.2913C4.22633 11.2228 4.26202 11.136 4.26202 11.0272C4.26202 10.9042 4.22431 10.8295 4.10613 10.718C4.02041 10.6371 3.82517 10.5045 3.67234 10.4233C3.5195 10.3421 3.26476 10.2422 3.10629 10.2013C2.88574 10.1445 2.5749 10.127 1.78146 10.127H0.744755L0.745411 9.45876C0.74574 9.09122 0.75873 8.74316 0.774206 8.68533L0.802391 8.58014L0.943363 8.69879C1.02093 8.76403 1.16096 8.85318 1.25457 8.89693C1.40328 8.96638 1.65122 8.97834 3.22058 8.99152L5.0164 9.00667L5.30749 8.7236C5.4676 8.5679 5.60735 8.44011 5.61804 8.43964C5.62873 8.43917 5.76938 8.56537 5.93056 8.72013ZM17.4686 13.2843C17.6327 13.3602 17.8525 13.5155 17.9828 13.6478L18.2103 13.8788H11.9064H5.60252L5.81158 13.6639C5.92658 13.5457 6.10507 13.405 6.20824 13.3513C6.31141 13.2976 6.48024 13.2267 6.58341 13.1938C6.73165 13.1464 7.86229 13.1358 11.9766 13.1429L17.1821 13.1519L17.4686 13.2843ZM2.95749 14.6203L4.4965 14.6349V15.0797C4.4965 15.4894 4.4874 15.5335 4.38137 15.6395L4.26629 15.7547H2.62063H0.974971L0.859886 15.6395C0.749116 15.5288 0.744755 15.5006 0.744755 14.8978V14.2711L1.08161 14.4384L1.41847 14.6057L2.95749 14.6203ZM23.2552 14.8892C23.2552 15.5011 23.251 15.5287 23.1401 15.6395L23.025 15.7547H21.3794H19.7337L19.6186 15.6395C19.5126 15.5335 19.5035 15.4894 19.5035 15.0797V14.6349L21.0406 14.6203L22.5778 14.6057L22.9048 14.437C23.0846 14.3442 23.2371 14.265 23.2435 14.2611C23.2499 14.2572 23.2552 14.5398 23.2552 14.8892Z" fill="#009993"></path>
  </symbol>
  <symbol fill="none" xmlns="http://www.w3.org/2000/svg" viewBox="0 0 24 18" id="Meter">
    <path d="M11.9998 0.512695C5.38303 0.512695 0 5.89605 0 12.5128C0 13.4337 0.105 14.3519 0.312516 15.2423C0.336375 15.3445 0.36375 15.4392 0.394313 15.527C0.755906 16.6835 1.845 17.4872 3.05986 17.4872H20.9363C22.0662 17.4872 23.0854 16.7941 23.5144 15.7678C23.5664 15.6656 23.6096 15.5523 23.6426 15.4258C23.6552 15.3777 23.6749 15.2974 23.7044 15.1667C23.9002 14.3006 24 13.407 24 12.5128C24 5.89606 18.6166 0.512695 11.9998 0.512695ZM22.3014 14.8504C22.2533 15.0636 22.2378 15.1148 22.2343 15.1148L22.2375 15.0716C22.0697 15.6506 21.5392 16.0491 20.9363 16.0491H3.05986C2.45841 16.0491 1.92928 15.6527 1.76006 15.0755L1.76991 15.1419C1.7678 15.1419 1.75444 15.0938 1.713 14.9161C1.53323 14.144 1.43808 13.3397 1.43808 12.5128C1.43808 6.67934 6.16669 1.95077 11.9998 1.95077C17.8329 1.95077 22.5619 6.67934 22.5619 12.5128C22.5619 13.3162 22.4717 14.0984 22.3014 14.8504Z" fill="#8292A8"></path>
    <path d="M12.5423 10.9315C12.3721 10.8732 12.1898 10.8398 11.9999 10.8398C11.0761 10.8398 10.3273 11.5887 10.3273 12.5128C10.3273 13.4365 11.0761 14.1854 11.9999 14.1854C12.8453 14.1854 13.5427 13.5577 13.655 12.7431C13.6655 12.6673 13.6725 12.5911 13.6725 12.5128C13.6725 11.779 13.1996 11.1569 12.5423 10.9315Z" fill="#8292A8"></path>
    <path d="M18.7367 6.13047C18.5896 5.97147 18.3238 5.96791 18.1152 6.12204L12.3218 10.3878C12.4482 10.4072 12.5739 10.437 12.6974 10.4795C13.4459 10.7365 13.9821 11.3786 14.1166 12.1381L18.7005 6.75152C18.8694 6.55357 18.8848 6.28779 18.7367 6.13047Z" fill="#8292A8"></path>
    <path d="M15.9563 5.57371C16.2161 5.72437 16.5483 5.63479 16.6985 5.37501C16.8488 5.1148 16.7596 4.7827 16.4998 4.63209C16.24 4.48255 15.9071 4.57171 15.7569 4.83116C15.6073 5.09165 15.6958 5.42413 15.9563 5.57371Z" fill="#8292A8"></path>
    <path d="M12.1519 4.55464C12.4524 4.55464 12.6954 4.31061 12.6954 4.01113C12.6954 3.71061 12.4524 3.46729 12.1519 3.46729C11.8521 3.46729 11.6084 3.71061 11.6084 4.01113C11.6084 4.31061 11.8521 4.55464 12.1519 4.55464Z" fill="#8292A8"></path>
    <path d="M3.57071 12.042C3.25543 12.042 2.99841 12.2983 2.99841 12.6143C2.99841 12.9303 3.25538 13.1859 3.57071 13.1859C3.88669 13.1859 4.1423 12.9303 4.1423 12.6143C4.1423 12.2983 3.88669 12.042 3.57071 12.042Z" fill="#8292A8"></path>
    <path d="M5.3644 7.61582C5.10462 7.46553 4.77176 7.55539 4.62148 7.81522C4.47195 8.075 4.5611 8.40716 4.82018 8.55777C5.08071 8.70805 5.41353 8.61852 5.56381 8.35869C5.71339 8.09886 5.62423 7.7661 5.3644 7.61582Z" fill="#8292A8"></path>
    <path d="M7.8046 4.63212C7.54407 4.78273 7.45561 5.11484 7.60589 5.37504C7.75547 5.63482 8.08828 5.7244 8.34811 5.57374C8.60794 5.42421 8.6971 5.09098 8.54752 4.83119C8.39728 4.57169 8.06443 4.48254 7.8046 4.63212Z" fill="#8292A8"></path>
    <path d="M18.9393 7.61581C18.6795 7.7661 18.5903 8.09891 18.7406 8.35874C18.8909 8.61927 19.2231 8.7081 19.4835 8.55781C19.7433 8.40721 19.8325 8.07505 19.6822 7.81527C19.5327 7.55539 19.1998 7.46553 18.9393 7.61581Z" fill="#8292A8"></path>
    <path d="M20.3036 12.706C20.6042 12.706 20.8471 12.463 20.8471 12.1629C20.8471 11.8623 20.6042 11.6187 20.3036 11.6187C20.0031 11.6187 19.7601 11.8623 19.7601 12.1629C19.7601 12.463 20.0031 12.706 20.3036 12.706Z" fill="#8292A8"></path>
  </symbol>
  <symbol fill="none" xmlns="http://www.w3.org/2000/svg" viewBox="0 0 22 22" id="EngineBelt">
    <path d="M10.517 2.57447L11.069 2.13978C11.0599 2.1283 11.0506 2.1171 11.0408 2.1062L10.517 2.57447ZM20.6403 15.4016L21.2152 14.9977C21.2079 14.9872 21.2002 14.9769 21.1923 14.9669L20.6403 15.4016ZM2.5772 20.5957C1.93022 20.5957 1.40575 20.0719 1.40575 19.4255H0C0 20.8474 1.15386 22 2.5772 22V20.5957ZM1.40575 6.31915C1.40575 3.60473 3.60856 1.40426 6.32586 1.40426V0C2.83218 0 0 2.82918 0 6.31915H1.40575ZM17.5718 20.5957H2.5772V22H17.5718V20.5957ZM0 6.31915V19.4255H1.40575V6.31915H0ZM6.32586 1.40426C7.78296 1.40426 9.09141 2.0361 9.99335 3.04273L11.0408 2.1062C9.88352 0.814543 8.19944 0 6.32586 0V1.40426ZM9.96505 3.00916L20.0884 15.8363L21.1923 14.9669L11.069 2.13978L9.96505 3.00916ZM20.0653 15.8055C21.4304 17.7445 19.991 20.5957 17.5718 20.5957V22C21.1501 22 23.2235 17.8505 21.2152 14.9977L20.0653 15.8055Z" fill="#8292A8"></path>
    <path d="M20 15.5C20.2173 15.8211 20.4005 16.1296 20.7095 15.9039C21.0184 15.6781 21.0927 15.2349 20.8755 14.914L20 15.5ZM17.3308 20.5789C15.6943 20.5789 14.3676 19.2004 14.3676 17.5H13C13 19.9853 14.9389 22 17.3308 22V20.5789ZM14.3676 17.5C14.3676 15.7996 15.6943 14.4211 17.3308 14.4211V13C14.9389 13 13 15.0147 13 17.5H14.3676ZM17.3308 14.4211C18.3331 14.4211 19.4627 14.7061 20 15.5L20.8755 14.914C20.093 13.7579 18.7971 13 17.3308 13V14.4211Z" fill="#8292A8"></path>
    <path d="M4.36364 19C4.36364 19.7532 3.75312 20.3636 3 20.3636V22C4.65685 22 6 20.6569 6 19H4.36364ZM3 20.3636C2.24688 20.3636 1.63636 19.7532 1.63636 19H0C0 20.6569 1.34315 22 3 22V20.3636ZM1.63636 19C1.63636 18.2468 2.24688 17.6364 3 17.6364V16C1.34315 16 0 17.3431 0 19H1.63636ZM3 17.6364C3.75312 17.6364 4.36364 18.2468 4.36364 19H6C6 17.3431 4.65685 16 3 16V17.6364Z" fill="#8292A8"></path>
    <path d="M11.5 3.00002C11.2339 2.7048 10.7774 2.23578 10.4801 2.50002C10.183 2.76425 10.1576 3.21778 10.4237 3.51302L11.5 3.00002ZM11.5556 6.5996C11.5556 9.37308 9.29211 11.6213 6.5 11.6213V13.0561C10.0898 13.0561 13 10.1655 13 6.5996H11.5556ZM6.5 11.6213C3.7079 11.6213 1.40625 9.37308 1.40625 6.5996H0C0 10.1655 2.91015 13.0561 6.5 13.0561V11.6213ZM10.4237 3.51302C11.2246 4.40194 11.5556 5.31297 11.5556 6.5996H13C13 4.9464 12.5288 4.14185 11.5 3.00002L10.4237 3.51302Z" fill="#8292A8"></path>
    <path d="M8.54011 6.00002C8.54011 7.15982 7.59991 8.10002 6.44011 8.10002V9.50002C8.37311 9.50002 9.94011 7.93302 9.94011 6.00002H8.54011ZM6.44011 8.10002C5.28031 8.10002 4.34011 7.15982 4.34011 6.00002H2.94011C2.94011 7.93302 4.50711 9.50002 6.44011 9.50002V8.10002ZM4.34011 6.00002C4.34011 4.84022 5.28031 3.90002 6.44011 3.90002V2.50002C4.50711 2.50002 2.94011 4.06702 2.94011 6.00002H4.34011ZM6.44011 3.90002C7.59991 3.90002 8.54011 4.84022 8.54011 6.00002H9.94011C9.94011 4.06702 8.37311 2.50002 6.44011 2.50002V3.90002Z" fill="#8292A8"></path>
  </symbol>
  <symbol fill="none" xmlns="http://www.w3.org/2000/svg" viewBox="0 0 24 24" id="GearStick">
    <g clip-path="url(#clip0_103_2534)">
      <path d="M12 0C5.37281 0 0 5.37239 0 12C0 18.6272 5.37281 24 12 24C18.6276 24 24 18.6272 24 12C24 5.37239 18.6276 0 12 0ZM12 22.8C6.04481 22.8 1.2 17.9552 1.2 12C1.2 6.04481 6.04481 1.2 12 1.2C17.9552 1.2 22.8 6.04481 22.8 12C22.8 17.9552 17.9552 22.8 12 22.8Z" fill="#8292A8"></path>
      <path d="M17.4 6V11.4H14.6V6H13.4V11.4H10.6001V6H9.40006V11.4H6.60002V6H5.40002V12C5.40002 12.3316 5.66843 12.6 6.00002 12.6H9.40001V18H10.6V12.6H13.4V18H14.6V12.6H17.4V18H18.6V6H17.4Z" fill="#8292A8"></path>
    </g>
    <defs>
      <clipPath id="clip0_103_2534">
        <rect width="24" height="24" fill="white"></rect>
      </clipPath>
    </defs>
  </symbol>
  <symbol fill="none" xmlns="http://www.w3.org/2000/svg" viewBox="0 0 20 20" id="MagnifyingGlass">
    <path d="M14.4431 14.4438L18.9995 19.0001M16.75 8.875C16.75 13.2242 13.2242 16.75 8.875 16.75C4.52576 16.75 1 13.2242 1 8.875C1 4.52576 4.52576 1 8.875 1C13.2242 1 16.75 4.52576 16.75 8.875Z" stroke="#8292A8" stroke-width="1.5" stroke-linecap="round" stroke-linejoin="round"></path>
  </symbol>
  <symbol fill="none" xmlns="http://www.w3.org/2000/svg" viewBox="0 0 20 20" id="MagnifyingGlass__accent_dark_40">
    <path d="M14.4431 14.4438L18.9995 19.0001M16.75 8.875C16.75 13.2242 13.2242 16.75 8.875 16.75C4.52576 16.75 1 13.2242 1 8.875C1 4.52576 4.52576 1 8.875 1C13.2242 1 16.75 4.52576 16.75 8.875Z" stroke="#009993" stroke-width="1.5" stroke-linecap="round" stroke-linejoin="round"></path>
  </symbol>
  <symbol fill="none" xmlns="http://www.w3.org/2000/svg" viewBox="0 0 18 22" id="MapPin">
    <path d="M9 11.75C10.6569 11.75 12 10.4069 12 8.75C12 7.09315 10.6569 5.75 9 5.75C7.34315 5.75 6 7.09315 6 8.75C6 10.4069 7.34315 11.75 9 11.75Z" stroke="#8292A8" stroke-width="1.5" stroke-linecap="round" stroke-linejoin="round"></path>
    <path d="M16.5 8.75C16.5 15.5 9 20.75 9 20.75C9 20.75 1.5 15.5 1.5 8.75C1.5 6.76088 2.29018 4.85322 3.6967 3.4467C5.10322 2.04018 7.01088 1.25 9 1.25C10.9891 1.25 12.8968 2.04018 14.3033 3.4467C15.7098 4.85322 16.5 6.76088 16.5 8.75Z" stroke="#8292A8" stroke-width="1.5" stroke-linecap="round" stroke-linejoin="round"></path>
  </symbol>
  <symbol fill="none" xmlns="http://www.w3.org/2000/svg" viewBox="0 0 18 20" id="CalendarBlank">
    <path d="M0.75 7.25H17.25M13.5 1.25V4.25M4.5 1.25V4.25M1.5 2.75H16.5C16.9142 2.75 17.25 3.08579 17.25 3.5V18.5C17.25 18.9142 16.9142 19.25 16.5 19.25H1.5C1.08579 19.25 0.75 18.9142 0.75 18.5V3.5C0.75 3.08579 1.08579 2.75 1.5 2.75Z" stroke="#8292A8" stroke-width="1.5" stroke-linecap="round" stroke-linejoin="round"></path>
  </symbol>
  <symbol fill="none" xmlns="http://www.w3.org/2000/svg" viewBox="0 0 22 20" id="Dislike">
    <path d="M6.49951 11.25L10.2495 18.75C10.6435 18.75 11.0336 18.6724 11.3976 18.5216C11.7615 18.3709 12.0923 18.1499 12.3708 17.8713C12.6494 17.5927 12.8704 17.262 13.0212 16.8981C13.1719 16.5341 13.2495 16.144 13.2495 15.75V13.5H19.0503C19.263 13.5 19.4733 13.4548 19.6672 13.3673C19.861 13.2798 20.0341 13.1522 20.1749 12.9927C20.3156 12.8333 20.4209 12.6457 20.4836 12.4425C20.5463 12.2392 20.5651 12.025 20.5388 11.8139L19.4138 2.81395C19.3684 2.45117 19.1921 2.11744 18.918 1.87548C18.644 1.63353 18.2909 1.5 17.9253 1.5H6.49951M6.49951 11.25V1.5M6.49951 11.25H1.99951C1.8006 11.25 1.60983 11.171 1.46918 11.0303C1.32853 10.8897 1.24951 10.6989 1.24951 10.5V2.25C1.24951 2.05109 1.32853 1.86032 1.46918 1.71967C1.60983 1.57902 1.8006 1.5 1.99951 1.5H6.49951" stroke="#8292A8" stroke-width="1.5" stroke-linecap="round" stroke-linejoin="round"></path>
  </symbol>
  <symbol fill="none" xmlns="http://www.w3.org/2000/svg" viewBox="0 0 12 14" id="Compare">
    <path fill-rule="evenodd" clip-rule="evenodd" d="M11 0C10.4477 0 10 0.447716 10 1V13C10 13.5523 10.4477 14 11 14C11.5523 14 12 13.5523 12 13V1C12 0.447715 11.5523 0 11 0ZM5 4.49954C5 3.94726 5.44772 3.49954 6 3.49954C6.55228 3.49954 7 3.94726 7 4.49954V12.9995C7 13.5518 6.55228 13.9995 6 13.9995C5.44772 13.9995 5 13.5518 5 12.9995V4.49954ZM0 8C0 7.44772 0.447715 7 1 7C1.55228 7 2 7.44772 2 8V13C2 13.5523 1.55228 14 1 14C0.447715 14 0 13.5523 0 13V8Z" fill="#8292A8"></path>
  </symbol>
  <symbol fill="none" xmlns="http://www.w3.org/2000/svg" viewBox="0 0 21 21" id="Key">
    <path d="M14.8753 7.24981C15.4966 7.24981 16.0003 6.74613 16.0003 6.12481C16.0003 5.50349 15.4966 4.99981 14.8753 4.99981C14.2539 4.99981 13.7503 5.50349 13.7503 6.12481C13.7503 6.74613 14.2539 7.24981 14.8753 7.24981Z" fill="#8292A8"></path>
    <path d="M6.73482 10.5154L7.26516 11.0457C7.47745 10.8334 7.54268 10.515 7.43096 10.2363L6.73482 10.5154ZM10.4849 14.2655L10.764 13.5693C10.4853 13.4576 10.1669 13.5228 9.95459 13.7351L10.4849 14.2655ZM9.25049 15.4998V16.2498C9.44939 16.2498 9.64015 16.1708 9.7808 16.0302L9.25049 15.4998ZM7.00049 15.4998V14.7498C6.58627 14.7498 6.25049 15.0856 6.25049 15.4998H7.00049ZM7.00049 17.7498V18.4998C7.4147 18.4998 7.75049 18.164 7.75049 17.7498H7.00049ZM4.75049 17.7498V16.9998C4.33627 16.9998 4.00049 17.3356 4.00049 17.7498H4.75049ZM4.75049 19.9998V20.7498C5.1647 20.7498 5.50049 20.414 5.50049 19.9998H4.75049ZM1.00049 19.9998H0.250488C0.250488 20.414 0.586275 20.7498 1.00049 20.7498L1.00049 19.9998ZM1.00049 16.2498L0.470154 15.7195C0.329504 15.8601 0.250488 16.0509 0.250488 16.2498H1.00049ZM7.43096 10.2363C6.9171 8.95458 6.86154 7.53475 7.27368 6.2168L5.84205 5.76911C5.32677 7.41687 5.39623 9.19201 6.03868 10.7945L7.43096 10.2363ZM7.27368 6.2168C7.68582 4.89885 8.54037 3.76362 9.6929 3.003L8.86667 1.75106C7.42573 2.70203 6.35732 4.12134 5.84205 5.76911L7.27368 6.2168ZM9.6929 3.003C10.8454 2.24238 12.2252 1.90302 13.5991 2.04229L13.7503 0.54994C12.0327 0.375819 10.3076 0.800098 8.86667 1.75106L9.6929 3.003ZM13.5991 2.04229C14.9729 2.18156 16.2565 2.79091 17.233 3.76735L18.2936 2.70669C17.0728 1.4859 15.468 0.724062 13.7503 0.54994L13.5991 2.04229ZM17.233 3.76735C18.2094 4.74379 18.8188 6.02741 18.958 7.40126L20.4504 7.24998C20.2763 5.53233 19.5144 3.92748 18.2936 2.70669L17.233 3.76735ZM18.958 7.40126C19.0973 8.77511 18.7579 10.1549 17.9973 11.3074L19.2492 12.1337C20.2002 10.6927 20.6245 8.96763 20.4504 7.24998L18.958 7.40126ZM17.9973 11.3074C17.2367 12.4599 16.1014 13.3145 14.7835 13.7266L15.2312 15.1583C16.8789 14.643 18.2983 13.5746 19.2492 12.1337L17.9973 11.3074ZM14.7835 13.7266C13.4655 14.1388 12.0457 14.0832 10.764 13.5693L10.2058 14.9616C11.8083 15.6041 13.5834 15.6735 15.2312 15.1583L14.7835 13.7266ZM9.95459 13.7351L8.72018 14.9695L9.7808 16.0302L11.0152 14.7958L9.95459 13.7351ZM9.25049 14.7498H7.00049V16.2498H9.25049V14.7498ZM6.25049 15.4998V17.7498H7.75049V15.4998H6.25049ZM7.00049 16.9998H4.75049V18.4998H7.00049V16.9998ZM4.00049 17.7498V19.9998H5.50049V17.7498H4.00049ZM4.75049 19.2498H1.00049V20.7498H4.75049V19.2498ZM1.75049 19.9998V16.2498H0.250488V19.9998H1.75049ZM1.53082 16.7801L7.26516 11.0457L6.20449 9.98506L0.470154 15.7195L1.53082 16.7801ZM14.5003 6.12481C14.5003 5.9177 14.6682 5.74981 14.8753 5.74981V7.24981C15.4966 7.24981 16.0003 6.74613 16.0003 6.12481H14.5003ZM14.8753 5.74981C15.0824 5.74981 15.2503 5.9177 15.2503 6.12481H13.7503C13.7503 6.74613 14.2539 7.24981 14.8753 7.24981V5.74981ZM15.2503 6.12481C15.2503 6.33192 15.0824 6.49981 14.8753 6.49981V4.99981C14.2539 4.99981 13.7503 5.50349 13.7503 6.12481H15.2503ZM14.8753 6.49981C14.6682 6.49981 14.5003 6.33192 14.5003 6.12481H16.0003C16.0003 5.50349 15.4966 4.99981 14.8753 4.99981V6.49981ZM15.2503 6.12481C15.2503 6.33192 15.0824 6.49981 14.8753 6.49981V7.99981C15.9108 7.99981 16.7503 7.16035 16.7503 6.12481H15.2503ZM14.8753 6.49981C14.6682 6.49981 14.5003 6.33192 14.5003 6.12481H13.0003C13.0003 7.16035 13.8397 7.99981 14.8753 7.99981V6.49981ZM14.5003 6.12481C14.5003 5.9177 14.6682 5.74981 14.8753 5.74981V4.24981C13.8397 4.24981 13.0003 5.08928 13.0003 6.12481H14.5003ZM14.8753 5.74981C15.0824 5.74981 15.2503 5.9177 15.2503 6.12481H16.7503C16.7503 5.08928 15.9108 4.24981 14.8753 4.24981V5.74981Z" fill="#8292A8"></path>
  </symbol>
  <symbol fill="none" xmlns="http://www.w3.org/2000/svg" viewBox="0 0 21 21" id="Key__accent">
    <path d="M14.8753 7.24981C15.4966 7.24981 16.0003 6.74613 16.0003 6.12481C16.0003 5.50349 15.4966 4.99981 14.8753 4.99981C14.2539 4.99981 13.7503 5.50349 13.7503 6.12481C13.7503 6.74613 14.2539 7.24981 14.8753 7.24981Z" fill="#47DAD4"></path>
    <path d="M6.73482 10.5154L7.26516 11.0457C7.47745 10.8334 7.54268 10.515 7.43096 10.2363L6.73482 10.5154ZM10.4849 14.2655L10.764 13.5693C10.4853 13.4576 10.1669 13.5228 9.95459 13.7351L10.4849 14.2655ZM9.25049 15.4998V16.2498C9.44939 16.2498 9.64015 16.1708 9.7808 16.0302L9.25049 15.4998ZM7.00049 15.4998V14.7498C6.58627 14.7498 6.25049 15.0856 6.25049 15.4998H7.00049ZM7.00049 17.7498V18.4998C7.4147 18.4998 7.75049 18.164 7.75049 17.7498H7.00049ZM4.75049 17.7498V16.9998C4.33627 16.9998 4.00049 17.3356 4.00049 17.7498H4.75049ZM4.75049 19.9998V20.7498C5.1647 20.7498 5.50049 20.414 5.50049 19.9998H4.75049ZM1.00049 19.9998H0.250488C0.250488 20.414 0.586275 20.7498 1.00049 20.7498L1.00049 19.9998ZM1.00049 16.2498L0.470154 15.7195C0.329504 15.8601 0.250488 16.0509 0.250488 16.2498H1.00049ZM7.43096 10.2363C6.9171 8.95458 6.86154 7.53475 7.27368 6.2168L5.84205 5.76911C5.32677 7.41687 5.39623 9.19201 6.03868 10.7945L7.43096 10.2363ZM7.27368 6.2168C7.68582 4.89885 8.54037 3.76362 9.6929 3.003L8.86667 1.75106C7.42573 2.70203 6.35732 4.12134 5.84205 5.76911L7.27368 6.2168ZM9.6929 3.003C10.8454 2.24238 12.2252 1.90302 13.5991 2.04229L13.7503 0.54994C12.0327 0.375819 10.3076 0.800098 8.86667 1.75106L9.6929 3.003ZM13.5991 2.04229C14.9729 2.18156 16.2565 2.79091 17.233 3.76735L18.2936 2.70669C17.0728 1.4859 15.468 0.724062 13.7503 0.54994L13.5991 2.04229ZM17.233 3.76735C18.2094 4.74379 18.8188 6.02741 18.958 7.40126L20.4504 7.24998C20.2763 5.53233 19.5144 3.92748 18.2936 2.70669L17.233 3.76735ZM18.958 7.40126C19.0973 8.77511 18.7579 10.1549 17.9973 11.3074L19.2492 12.1337C20.2002 10.6927 20.6245 8.96763 20.4504 7.24998L18.958 7.40126ZM17.9973 11.3074C17.2367 12.4599 16.1014 13.3145 14.7835 13.7266L15.2312 15.1583C16.8789 14.643 18.2983 13.5746 19.2492 12.1337L17.9973 11.3074ZM14.7835 13.7266C13.4655 14.1388 12.0457 14.0832 10.764 13.5693L10.2058 14.9616C11.8083 15.6041 13.5834 15.6735 15.2312 15.1583L14.7835 13.7266ZM9.95459 13.7351L8.72018 14.9695L9.7808 16.0302L11.0152 14.7958L9.95459 13.7351ZM9.25049 14.7498H7.00049V16.2498H9.25049V14.7498ZM6.25049 15.4998V17.7498H7.75049V15.4998H6.25049ZM7.00049 16.9998H4.75049V18.4998H7.00049V16.9998ZM4.00049 17.7498V19.9998H5.50049V17.7498H4.00049ZM4.75049 19.2498H1.00049V20.7498H4.75049V19.2498ZM1.75049 19.9998V16.2498H0.250488V19.9998H1.75049ZM1.53082 16.7801L7.26516 11.0457L6.20449 9.98506L0.470154 15.7195L1.53082 16.7801ZM14.5003 6.12481C14.5003 5.9177 14.6682 5.74981 14.8753 5.74981V7.24981C15.4966 7.24981 16.0003 6.74613 16.0003 6.12481H14.5003ZM14.8753 5.74981C15.0824 5.74981 15.2503 5.9177 15.2503 6.12481H13.7503C13.7503 6.74613 14.2539 7.24981 14.8753 7.24981V5.74981ZM15.2503 6.12481C15.2503 6.33192 15.0824 6.49981 14.8753 6.49981V4.99981C14.2539 4.99981 13.7503 5.50349 13.7503 6.12481H15.2503ZM14.8753 6.49981C14.6682 6.49981 14.5003 6.33192 14.5003 6.12481H16.0003C16.0003 5.50349 15.4966 4.99981 14.8753 4.99981V6.49981ZM15.2503 6.12481C15.2503 6.33192 15.0824 6.49981 14.8753 6.49981V7.99981C15.9108 7.99981 16.7503 7.16035 16.7503 6.12481H15.2503ZM14.8753 6.49981C14.6682 6.49981 14.5003 6.33192 14.5003 6.12481H13.0003C13.0003 7.16035 13.8397 7.99981 14.8753 7.99981V6.49981ZM14.5003 6.12481C14.5003 5.9177 14.6682 5.74981 14.8753 5.74981V4.24981C13.8397 4.24981 13.0003 5.08928 13.0003 6.12481H14.5003ZM14.8753 5.74981C15.0824 5.74981 15.2503 5.9177 15.2503 6.12481H16.7503C16.7503 5.08928 15.9108 4.24981 14.8753 4.24981V5.74981Z" fill="#47DAD4"></path>
  </symbol>
  <symbol fill="none" xmlns="http://www.w3.org/2000/svg" viewBox="0 0 18 21" id="ClipboardText">
    <path d="M6 13.25H12M6 10.25H12M12.0002 2.75H15.75C15.9489 2.75 16.1397 2.82902 16.2803 2.96967C16.421 3.11032 16.5 3.30109 16.5 3.5V19.25C16.5 19.4489 16.421 19.6397 16.2803 19.7803C16.1397 19.921 15.9489 20 15.75 20H2.25C2.05109 20 1.86032 19.921 1.71967 19.7803C1.57902 19.6397 1.5 19.4489 1.5 19.25V3.5C1.5 3.30109 1.57902 3.11032 1.71967 2.96967C1.86032 2.82902 2.05109 2.75 2.25 2.75H5.9998M5.25 5.75V5C5.25 4.00544 5.64509 3.05161 6.34835 2.34835C7.05161 1.64509 8.00544 1.25 9 1.25C9.99456 1.25 10.9484 1.64509 11.6517 2.34835C12.3549 3.05161 12.75 4.00544 12.75 5V5.75H5.25Z" stroke="#8292A8" stroke-width="1.5" stroke-linecap="round" stroke-linejoin="round"></path>
  </symbol>
  <symbol fill="none" xmlns="http://www.w3.org/2000/svg" viewBox="0 0 18 21" id="ClipboardText__accent">
    <path d="M6 13.25H12M6 10.25H12M12.0002 2.75H15.75C15.9489 2.75 16.1397 2.82902 16.2803 2.96967C16.421 3.11032 16.5 3.30109 16.5 3.5V19.25C16.5 19.4489 16.421 19.6397 16.2803 19.7803C16.1397 19.921 15.9489 20 15.75 20H2.25C2.05109 20 1.86032 19.921 1.71967 19.7803C1.57902 19.6397 1.5 19.4489 1.5 19.25V3.5C1.5 3.30109 1.57902 3.11032 1.71967 2.96967C1.86032 2.82902 2.05109 2.75 2.25 2.75H5.9998M5.25 5.75V5C5.25 4.00544 5.64509 3.05161 6.34835 2.34835C7.05161 1.64509 8.00544 1.25 9 1.25C9.99456 1.25 10.9484 1.64509 11.6517 2.34835C12.3549 3.05161 12.75 4.00544 12.75 5V5.75H5.25Z" stroke="#47DAD4" stroke-width="1.5" stroke-linecap="round" stroke-linejoin="round"></path>
  </symbol>
  <symbol fill="none" xmlns="http://www.w3.org/2000/svg" viewBox="0 0 24 16" id="Keyboard">
    <path d="M18.7692 11.1111H19.6154M8.61538 11.1111H15.3846M4.38462 11.1111H5.23077M4.38462 8H19.6154M4.38462 4.88889H19.6154M1.89748 1H22.1025C22.5982 1 23 1.36935 23 1.82496V14.175C23 14.6307 22.5982 15 22.1025 15H1.89748C1.40182 15 1 14.6307 1 14.175V1.82496C1 1.36935 1.40182 1 1.89748 1Z" stroke="#8292A8" stroke-width="1.5" stroke-linecap="round" stroke-linejoin="round"></path>
  </symbol>
  <symbol fill="none" xmlns="http://www.w3.org/2000/svg" viewBox="0 0 24 16" id="Keyboard__accent">
    <path d="M18.7692 11.1111H19.6154M8.61538 11.1111H15.3846M4.38462 11.1111H5.23077M4.38462 8H19.6154M4.38462 4.88889H19.6154M1.89748 1H22.1025C22.5982 1 23 1.36935 23 1.82496V14.175C23 14.6307 22.5982 15 22.1025 15H1.89748C1.40182 15 1 14.6307 1 14.175V1.82496C1 1.36935 1.40182 1 1.89748 1Z" stroke="#47DAD4" stroke-width="1.5" stroke-linecap="round" stroke-linejoin="round"></path>
  </symbol>
  <symbol fill="none" xmlns="http://www.w3.org/2000/svg" viewBox="0 0 22 19" id="BookOpen">
    <path d="M11 4.25C11 3.45435 11.3161 2.69129 11.8787 2.12868C12.4413 1.56607 13.2044 1.25 14 1.25H20C20.1989 1.25 20.3897 1.32902 20.5303 1.46967C20.671 1.61032 20.75 1.80109 20.75 2V14C20.75 14.1989 20.671 14.3897 20.5303 14.5303C20.3897 14.671 20.1989 14.75 20 14.75H14C13.2044 14.75 12.4413 15.0661 11.8787 15.6287C11.3161 16.1913 11 16.9544 11 17.75M11 4.25V17.75M11 4.25C11 3.45435 10.6839 2.69129 10.1213 2.12868C9.55871 1.56607 8.79565 1.25 8 1.25H2C1.80109 1.25 1.61032 1.32902 1.46967 1.46967C1.32902 1.61032 1.25 1.80109 1.25 2V14C1.25 14.1989 1.32902 14.3897 1.46967 14.5303C1.61032 14.671 1.80109 14.75 2 14.75H8C8.79565 14.75 9.55871 15.0661 10.1213 15.6287C10.6839 16.1913 11 16.9544 11 17.75" stroke="#8292A8" stroke-width="1.5" stroke-linecap="round" stroke-linejoin="round"></path>
  </symbol>
  <symbol fill="none" xmlns="http://www.w3.org/2000/svg" viewBox="0 0 22 19" id="BookOpen__accent">
    <path d="M11 4.25C11 3.45435 11.3161 2.69129 11.8787 2.12868C12.4413 1.56607 13.2044 1.25 14 1.25H20C20.1989 1.25 20.3897 1.32902 20.5303 1.46967C20.671 1.61032 20.75 1.80109 20.75 2V14C20.75 14.1989 20.671 14.3897 20.5303 14.5303C20.3897 14.671 20.1989 14.75 20 14.75H14C13.2044 14.75 12.4413 15.0661 11.8787 15.6287C11.3161 16.1913 11 16.9544 11 17.75M11 4.25V17.75M11 4.25C11 3.45435 10.6839 2.69129 10.1213 2.12868C9.55871 1.56607 8.79565 1.25 8 1.25H2C1.80109 1.25 1.61032 1.32902 1.46967 1.46967C1.32902 1.61032 1.25 1.80109 1.25 2V14C1.25 14.1989 1.32902 14.3897 1.46967 14.5303C1.61032 14.671 1.80109 14.75 2 14.75H8C8.79565 14.75 9.55871 15.0661 10.1213 15.6287C10.6839 16.1913 11 16.9544 11 17.75" stroke="#47DAD4" stroke-width="1.5" stroke-linecap="round" stroke-linejoin="round"></path>
  </symbol>
  <symbol fill="none" xmlns="http://www.w3.org/2000/svg" viewBox="0 0 18 20" id="Book">
    <path d="M1.5 18.25V19H15M1.5 18.25C1.5 17.6533 1.73705 17.081 2.15901 16.659C2.58097 16.2371 3.15326 16 3.75 16H16.5V1H3.75C3.15326 1 2.58097 1.23705 2.15901 1.65901C1.73705 2.08097 1.5 2.65326 1.5 3.25V18.25Z" stroke="#8292A8" stroke-width="1.5" stroke-linecap="round" stroke-linejoin="round"></path>
  </symbol>
  <symbol fill="none" xmlns="http://www.w3.org/2000/svg" viewBox="0 0 18 20" id="Book__accent">
    <path d="M1.5 18.25V19H15M1.5 18.25C1.5 17.6533 1.73705 17.081 2.15901 16.659C2.58097 16.2371 3.15326 16 3.75 16H16.5V1H3.75C3.15326 1 2.58097 1.23705 2.15901 1.65901C1.73705 2.08097 1.5 2.65326 1.5 3.25V18.25Z" stroke="#47DAD4" stroke-width="1.5" stroke-linecap="round" stroke-linejoin="round"></path>
  </symbol>
  <symbol fill="none" xmlns="http://www.w3.org/2000/svg" viewBox="0 0 18 18" id="PlusSolid">
    <path d="M0.75 9H17.25M9 0.75V17.25" stroke="#8292A8" stroke-width="1.5" stroke-linecap="round" stroke-linejoin="round"></path>
  </symbol>
  <symbol fill="none" xmlns="http://www.w3.org/2000/svg" viewBox="0 0 24 24" id="MinusRed">
    <circle cx="12" cy="12" r="12" fill="#CA4022"></circle>
    <path d="M5 12H19" stroke="white" stroke-width="1.5" stroke-linecap="round" stroke-linejoin="round"></path>
  </symbol>
  <symbol fill="none" xmlns="http://www.w3.org/2000/svg" viewBox="0 0 24 24" id="PlusGreen">
    <circle cx="12" cy="12" r="12" fill="#22CA3D"></circle>
    <path d="M5 12H19M12 5V19" stroke="white" stroke-width="1.5" stroke-linecap="round" stroke-linejoin="round"></path>
  </symbol>
  <symbol fill="none" xmlns="http://www.w3.org/2000/svg" viewBox="0 0 18 21" id="PaintBrush">
    <path d="M7.5 12.25L6.75 17.5C6.75 18.0967 6.98705 18.669 7.40901 19.091C7.83097 19.5129 8.40326 19.75 9 19.75C9.59674 19.75 10.169 19.5129 10.591 19.091C11.0129 18.669 11.25 18.0967 11.25 17.5L10.5 12.25M0.75 8.5H17.25M12.75 1V4.75M3.75 1H16.5C16.6989 1 16.8897 1.07902 17.0303 1.21967C17.171 1.36032 17.25 1.55109 17.25 1.75V11.5C17.25 11.6989 17.171 11.8897 17.0303 12.0303C16.8897 12.171 16.6989 12.25 16.5 12.25H1.5C1.30109 12.25 1.11032 12.171 0.96967 12.0303C0.829018 11.8897 0.75 11.6989 0.75 11.5V4C0.75 3.20435 1.06607 2.44129 1.62868 1.87868C2.19129 1.31607 2.95435 1 3.75 1Z" stroke="#8292A8" stroke-width="1.5" stroke-linecap="round" stroke-linejoin="round"></path>
  </symbol>
  <symbol fill="none" xmlns="http://www.w3.org/2000/svg" viewBox="0 0 24 16" id="Views">
    <path d="M12 1.24951C4.5 1.24951 1.5 8.00024 1.5 8.00024C1.5 8.00024 4.5 14.7495 12 14.7495C19.5 14.7495 22.5 8.00024 22.5 8.00024C22.5 8.00024 19.5 1.24951 12 1.24951Z" stroke="#8292A8" stroke-width="1.5" stroke-linecap="round" stroke-linejoin="round"></path>
    <path d="M12 11.7503C14.0711 11.7503 15.75 10.0714 15.75 8.0003C15.75 5.92923 14.0711 4.2503 12 4.2503C9.92893 4.2503 8.25 5.92923 8.25 8.0003C8.25 10.0714 9.92893 11.7503 12 11.7503Z" stroke="#8292A8" stroke-width="1.5" stroke-linecap="round" stroke-linejoin="round"></path>
  </symbol>
  <symbol fill="none" xmlns="http://www.w3.org/2000/svg" viewBox="0 0 20 19" id="Comments">
    <path d="M5.25165 14.9259L2.23261 17.4638C2.12328 17.5557 1.98999 17.6145 1.8484 17.6332C1.70681 17.652 1.56281 17.6299 1.43334 17.5696C1.30387 17.5093 1.19431 17.4133 1.11755 17.2928C1.04078 17.1724 1 17.0325 1 16.8897V2C1 1.80109 1.07902 1.61032 1.21967 1.46967C1.36032 1.32902 1.55109 1.25 1.75 1.25H18.25C18.4489 1.25 18.6397 1.32902 18.7803 1.46967C18.921 1.61032 19 1.80109 19 2V14C19 14.1989 18.921 14.3897 18.7803 14.5303C18.6397 14.671 18.4489 14.75 18.25 14.75H5.73426C5.5577 14.75 5.3868 14.8123 5.25165 14.9259Z" stroke="#8292A8" stroke-width="1.5" stroke-linecap="round" stroke-linejoin="round"></path>
    <path d="M14.5 9.125C15.1213 9.125 15.625 8.62132 15.625 8C15.625 7.37868 15.1213 6.875 14.5 6.875C13.8787 6.875 13.375 7.37868 13.375 8C13.375 8.62132 13.8787 9.125 14.5 9.125Z" fill="#8292A8"></path>
    <path d="M10 9.125C10.6213 9.125 11.125 8.62132 11.125 8C11.125 7.37868 10.6213 6.875 10 6.875C9.37868 6.875 8.875 7.37868 8.875 8C8.875 8.62132 9.37868 9.125 10 9.125Z" fill="#8292A8"></path>
    <path d="M5.5 9.125C6.12132 9.125 6.625 8.62132 6.625 8C6.625 7.37868 6.12132 6.875 5.5 6.875C4.87868 6.875 4.375 7.37868 4.375 8C4.375 8.62132 4.87868 9.125 5.5 9.125Z" fill="#8292A8"></path>
  </symbol>
  <symbol fill="none" xmlns="http://www.w3.org/2000/svg" viewBox="0 0 22 20" id="Like">
    <path d="M6.49951 8.75H1.99951C1.8006 8.75 1.60983 8.82902 1.46918 8.96967C1.32853 9.11032 1.24951 9.30109 1.24951 9.5V17.75C1.24951 17.9489 1.32853 18.1397 1.46918 18.2803C1.60983 18.421 1.8006 18.5 1.99951 18.5H6.49951M6.49951 8.75V18.5M6.49951 8.75L10.2495 1.25C10.6435 1.25 11.0336 1.3276 11.3976 1.47836C11.7615 1.62913 12.0923 1.8501 12.3708 2.12868C12.6494 2.40726 12.8704 2.73797 13.0212 3.10195C13.1719 3.46593 13.2495 3.85603 13.2495 4.25V6.5H19.0503C19.263 6.5 19.4733 6.54523 19.6672 6.63269C19.861 6.72016 20.0341 6.84785 20.1749 7.0073C20.3156 7.16675 20.4209 7.35431 20.4836 7.55753C20.5463 7.76076 20.5651 7.975 20.5388 8.18605L19.4138 17.1861C19.3684 17.5488 19.1921 17.8826 18.918 18.1245C18.644 18.3665 18.2909 18.5 17.9253 18.5H6.49951" stroke="#8292A8" stroke-width="1.5" stroke-linecap="round" stroke-linejoin="round"></path>
  </symbol>
  <symbol fill="none" xmlns="http://www.w3.org/2000/svg" viewBox="0 0 18 18" id="Square">
    <path d="M17.25 1.5V16.5C17.25 16.9142 16.9142 17.25 16.5 17.25H1.5C1.08579 17.25 0.75 16.9142 0.75 16.5V1.5C0.75 1.08579 1.08579 0.75 1.5 0.75H16.5C16.9142 0.75 17.25 1.08579 17.25 1.5Z" fill="white" stroke="#8292A8" stroke-width="1.5" stroke-linecap="round" stroke-linejoin="round"></path>
  </symbol>
  <symbol fill="none" xmlns="http://www.w3.org/2000/svg" viewBox="0 0 18 20" id="ArrowsDownUp">
    <path d="M7.5 16L4.5 19M4.5 19L1.5 16M4.5 19V1M10.5 4L13.5 1M13.5 1L16.5 4M13.5 1V19" stroke="#8292A8" stroke-width="1.5" stroke-linecap="round" stroke-linejoin="round"></path>
  </symbol>
  <symbol fill="none" xmlns="http://www.w3.org/2000/svg" viewBox="0 0 20 20" id="XCricle">
    <path d="M13 7L7 13M13 13L7 7M19 10C19 14.9706 14.9706 19 10 19C5.02944 19 1 14.9706 1 10C1 5.02944 5.02944 1 10 1C14.9706 1 19 5.02944 19 10Z" stroke="#8292A8" stroke-width="1.5" stroke-linecap="round"></path>
  </symbol>
  <symbol fill="none" xmlns="http://www.w3.org/2000/svg" viewBox="0 0 18 18" id="ArrowSquareRight">
    <path d="M9.56803 5.81803L12.75 9M12.75 9L9.56803 12.182M12.75 9H5.25M17.25 1.5V16.5C17.25 16.9142 16.9142 17.25 16.5 17.25H1.5C1.08579 17.25 0.75 16.9142 0.75 16.5V1.5C0.75 1.08579 1.08579 0.75 1.5 0.75H16.5C16.9142 0.75 17.25 1.08579 17.25 1.5Z" stroke="#8292A8" stroke-width="1.5" stroke-linecap="round" stroke-linejoin="round"></path>
  </symbol>
  <symbol fill="none" xmlns="http://www.w3.org/2000/svg" viewBox="0 0 18 16" id="ArrowRight">
    <path d="M0.75 8H17.25M17.25 8L10.5 1.25M17.25 8L10.5 14.75" stroke="#8292A8" stroke-width="1.5" stroke-linecap="round" stroke-linejoin="round"></path>
  </symbol>
  <symbol fill="none" xmlns="http://www.w3.org/2000/svg" viewBox="0 0 20 20" id="Plus">
    <path d="M10 19C14.9706 19 19 14.9706 19 10C19 5.02944 14.9706 1 10 1C5.02944 1 1 5.02944 1 10C1 14.9706 5.02944 19 10 19Z" fill="#47DAD4"></path>
    <path d="M6.25 9.5C5.97386 9.5 5.75 9.72386 5.75 10C5.75 10.2761 5.97386 10.5 6.25 10.5V9.5ZM13.75 10.5C14.0261 10.5 14.25 10.2761 14.25 10C14.25 9.72386 14.0261 9.5 13.75 9.5V10.5ZM10.5 6.5C10.5 6.22386 10.2761 6 10 6C9.72386 6 9.5 6.22386 9.5 6.5H10.5ZM9.5 13.5C9.5 13.7761 9.72386 14 10 14C10.2761 14 10.5 13.7761 10.5 13.5H9.5ZM18.5 10C18.5 14.6944 14.6944 18.5 10 18.5V19.5C15.2467 19.5 19.5 15.2467 19.5 10H18.5ZM10 18.5C5.30558 18.5 1.5 14.6944 1.5 10H0.5C0.5 15.2467 4.75329 19.5 10 19.5V18.5ZM1.5 10C1.5 5.30558 5.30558 1.5 10 1.5V0.5C4.75329 0.5 0.5 4.75329 0.5 10H1.5ZM10 1.5C14.6944 1.5 18.5 5.30558 18.5 10H19.5C19.5 4.75329 15.2467 0.5 10 0.5V1.5ZM6.25 10.5H10V9.5H6.25V10.5ZM10 10.5H13.75V9.5H10V10.5ZM10.5 10V6.5H9.5V10H10.5ZM9.5 10V13.5H10.5V10H9.5Z" fill="white"></path>
  </symbol>
  <symbol fill="none" xmlns="http://www.w3.org/2000/svg" viewBox="0 0 20 20" id="ArrowCircleRight">
    <path d="M10 19C14.9706 19 19 14.9706 19 10C19 5.02944 14.9706 1 10 1C5.02944 1 1 5.02944 1 10C1 14.9706 5.02944 19 10 19Z" fill="#47DAD4"></path>
    <path d="M10.2145 12.8284C10.0192 13.0237 10.0192 13.3403 10.2145 13.5355C10.4097 13.7308 10.7263 13.7308 10.9216 13.5355L10.2145 12.8284ZM13.75 10L14.1036 10.3536C14.1973 10.2598 14.25 10.1326 14.25 10C14.25 9.86739 14.1973 9.74021 14.1036 9.64645L13.75 10ZM10.9216 6.46448C10.7263 6.26922 10.4097 6.26922 10.2145 6.46448C10.0192 6.65974 10.0192 6.97632 10.2145 7.17159L10.9216 6.46448ZM6.25 9.5C5.97386 9.5 5.75 9.72386 5.75 10C5.75 10.2761 5.97386 10.5 6.25 10.5V9.5ZM18.5 10C18.5 14.6944 14.6944 18.5 10 18.5V19.5C15.2467 19.5 19.5 15.2467 19.5 10H18.5ZM10 18.5C5.30558 18.5 1.5 14.6944 1.5 10H0.5C0.5 15.2467 4.75329 19.5 10 19.5V18.5ZM1.5 10C1.5 5.30558 5.30558 1.5 10 1.5V0.5C4.75329 0.5 0.5 4.75329 0.5 10H1.5ZM10 1.5C14.6944 1.5 18.5 5.30558 18.5 10H19.5C19.5 4.75329 15.2467 0.5 10 0.5V1.5ZM10.9216 13.5355L14.1036 10.3536L13.3964 9.64645L10.2145 12.8284L10.9216 13.5355ZM14.1036 9.64645L10.9216 6.46448L10.2145 7.17159L13.3964 10.3536L14.1036 9.64645ZM6.25 10.5H13.75V9.5H6.25V10.5Z" fill="white"></path>
  </symbol>
</svg>