<svg width="115" height="32" viewBox="0 0 115 32" fill="none" xmlns="http://www.w3.org/2000/svg">
<path fill-rule="evenodd" clip-rule="evenodd" d="M15.596 20.3168H13.0533C13.0533 20.3168 12.6838 20.7898 12.1516 20.8489C12.0333 20.8637 11.782 20.8637 11.442 20.8637V21.4846C11.442 21.7359 11.235 21.9429 10.9837 21.9429H8.07145C7.82014 21.9429 7.61318 21.7359 7.61318 21.4846V20.4202H7.31752V15.6305C7.31752 15.6305 7.34708 14.8766 7.80536 14.3001C8.26363 13.7235 8.60364 13.6053 8.60364 13.6053C8.60364 13.6053 7.87927 12.94 7.2436 12.8218C6.62271 12.7035 6.62271 12.0235 7.53926 12.0235C8.45581 12.0087 8.8106 12.1122 8.79582 12.6444C8.78104 13.1766 9.15061 13.354 9.15061 13.354L10.0819 11.1513C10.0819 11.1513 10.3924 10.0573 12.2994 10.0573H18.8187C20.7257 10.0573 21.0362 11.1513 21.0362 11.1513L21.9675 13.354C21.9675 13.354 22.3371 13.1766 22.3223 12.6444C22.3075 12.1122 22.6623 12.0087 23.5788 12.0235C24.4954 12.0383 24.4954 12.7035 23.8745 12.8218C23.2536 12.94 22.5145 13.5905 22.5145 13.5905C22.5145 13.5905 22.8545 13.7235 23.3127 14.2853C23.771 14.8618 23.8006 15.6158 23.8006 15.6158V20.4055H23.5049V21.4698C23.5049 21.7211 23.298 21.9281 23.0466 21.9281H20.1344C19.8831 21.9281 19.6761 21.7211 19.6761 21.4698V20.8489C19.3361 20.8489 19.07 20.8342 18.9665 20.8342C18.4343 20.775 18.0648 20.302 18.0648 20.302H15.596V20.3168ZM12.3142 10.5747C12.3142 10.5747 11.0872 10.5895 10.7176 11.4322C10.348 12.2748 10.0672 13.1913 10.0672 13.1913C10.0672 13.1913 9.81585 13.6644 10.4515 13.6644H20.6518C21.3023 13.6644 21.0362 13.1913 21.0362 13.1913C21.0362 13.1913 20.7553 12.2748 20.3857 11.4322C20.0161 10.5895 18.7891 10.5747 18.7891 10.5747H12.3142ZM13.0977 16.2514C12.7577 16.2514 12.4916 16.4436 12.4916 16.6653C12.4916 16.9019 12.7725 17.0793 13.0977 17.0793H18.0204C18.3604 17.0793 18.6413 16.8871 18.6413 16.6653C18.6413 16.4288 18.3604 16.2514 18.0204 16.2514H13.0977ZM19.1587 17.1088C19.1587 17.1088 19.4692 17.2567 20.9918 17.0793C22.5145 16.9019 22.8101 16.3845 23.0171 15.5271C23.224 14.6696 22.6032 14.8027 21.1101 15.3201C19.617 15.8523 19.1587 17.1088 19.1587 17.1088ZM11.9594 17.1088C11.9594 17.1088 11.5011 15.8523 10.008 15.3201C8.51494 14.7879 7.89405 14.6696 8.10102 15.5271C8.30798 16.3845 8.58886 16.8871 10.1263 17.0793C11.6489 17.2567 11.9594 17.1088 11.9594 17.1088Z" fill="#009993"/>
<path fill-rule="evenodd" clip-rule="evenodd" d="M15.5517 0.551743C19.824 0.551743 23.6824 2.28136 26.4764 5.07535C29.2704 7.86934 31 11.7277 31 16C31 20.2723 29.2704 24.1307 26.4764 26.9247C23.6824 29.7186 19.824 31.4483 15.5517 31.4483C11.6342 31.4483 8.04196 29.9847 5.32189 27.5751L0 29.4821L2.42442 24.1307C0.960896 21.7654 0.103481 18.9714 0.103481 15.9852C0.103481 11.7129 1.83309 7.85456 4.62709 5.06056C7.42108 2.28136 11.2942 0.551743 15.5517 0.551743ZM24.7616 6.79018C22.4111 4.43968 19.144 2.97616 15.5517 2.97616C11.9595 2.97616 8.7072 4.43968 6.34192 6.79018C3.99142 9.14068 2.5279 12.4077 2.5279 16C2.5279 19.5923 3.99142 22.8445 6.34192 25.2098C8.69242 27.5603 11.9595 29.0238 15.5517 29.0238C19.144 29.0238 22.3963 27.5603 24.7616 25.2098C27.1121 22.8593 28.5756 19.5923 28.5756 16C28.5756 12.4077 27.1121 9.15546 24.7616 6.79018Z" fill="#47DAD4"/>
<path d="M52.7 10.64L50.78 12.16C50.4333 11.68 49.96 11.32 49.36 11.08C48.7733 10.8267 48.1733 10.7 47.56 10.7C46.12 10.7 44.94 11.1933 44.02 12.18C43.1133 13.1667 42.66 14.4 42.66 15.88C42.66 17.4267 43.0933 18.6867 43.96 19.66C44.84 20.62 46.0067 21.1 47.46 21.1C48.9533 21.1 50.1 20.5533 50.9 19.46L52.92 20.88C51.6 22.5333 49.7733 23.36 47.44 23.36C45.2267 23.36 43.4133 22.6667 42 21.28C40.5867 19.88 39.88 18.08 39.88 15.88C39.88 13.6533 40.6 11.8667 42.04 10.52C43.4933 9.16 45.3333 8.48 47.56 8.48C48.5467 8.48 49.5133 8.66667 50.46 9.04C51.42 9.4 52.1667 9.93334 52.7 10.64Z" fill="#009993"/>
<path d="M59.9742 23V21.78H59.9142C59.6742 22.2067 59.2809 22.56 58.7342 22.84C58.2009 23.1067 57.6009 23.24 56.9342 23.24C56.0142 23.24 55.1809 23 54.4342 22.52C53.7009 22.0267 53.3342 21.2733 53.3342 20.26C53.3342 19.7133 53.4676 19.24 53.7342 18.84C54.0142 18.4267 54.3609 18.1067 54.7742 17.88C55.1876 17.6533 55.7009 17.4733 56.3142 17.34C56.9409 17.1933 57.5276 17.1 58.0742 17.06C58.6342 17.02 59.2542 17 59.9342 17V16.76C59.9342 16.2 59.7276 15.7667 59.3142 15.46C58.9009 15.1533 58.3742 15 57.7342 15C56.7209 15 55.8476 15.3667 55.1142 16.1L53.8742 14.64C54.9676 13.6267 56.3209 13.12 57.9342 13.12C58.7609 13.12 59.4609 13.24 60.0342 13.48C60.6209 13.7067 61.0676 14.0267 61.3742 14.44C61.6809 14.84 61.8942 15.2667 62.0142 15.72C62.1476 16.16 62.2142 16.64 62.2142 17.16V23H59.9742ZM59.9342 18.96V18.62H59.3942C56.9542 18.62 55.7342 19.1533 55.7342 20.22C55.7342 20.6467 55.8942 20.9533 56.2142 21.14C56.5476 21.3267 56.9476 21.42 57.4142 21.42C58.2276 21.42 58.8476 21.2067 59.2742 20.78C59.7142 20.34 59.9342 19.7333 59.9342 18.96Z" fill="#009993"/>
<path d="M65.0103 23V13.4H67.3103V15H67.3503C67.617 14.4267 67.997 13.9733 68.4903 13.64C68.9836 13.2933 69.537 13.12 70.1503 13.12C70.377 13.12 70.5703 13.14 70.7303 13.18V15.38C70.4636 15.3133 70.217 15.28 69.9903 15.28C69.577 15.28 69.2103 15.3467 68.8903 15.48C68.5703 15.6133 68.317 15.78 68.1303 15.98C67.957 16.18 67.8103 16.4067 67.6903 16.66C67.5836 16.9 67.5103 17.12 67.4703 17.32C67.4303 17.52 67.4103 17.7 67.4103 17.86V23H65.0103Z" fill="#009993"/>
<path d="M86.2755 10L84.6355 11.8C84.3688 11.44 83.9888 11.1467 83.4955 10.92C83.0155 10.6933 82.5288 10.58 82.0355 10.58C81.3821 10.58 80.8021 10.7467 80.2955 11.08C79.7888 11.4 79.5355 11.88 79.5355 12.52C79.5355 12.84 79.5888 13.1133 79.6955 13.34C79.8155 13.5533 80.0155 13.7467 80.2955 13.92C80.5888 14.0933 80.8621 14.2267 81.1155 14.32C81.3688 14.4133 81.7421 14.54 82.2355 14.7C82.7021 14.8467 83.0821 14.9733 83.3755 15.08C83.6821 15.1867 84.0421 15.36 84.4555 15.6C84.8821 15.8267 85.2155 16.0733 85.4555 16.34C85.7088 16.6067 85.9221 16.96 86.0955 17.4C86.2821 17.8267 86.3755 18.3067 86.3755 18.84C86.3755 20.2933 85.8821 21.4133 84.8955 22.2C83.9221 22.9733 82.6955 23.36 81.2155 23.36C80.2688 23.36 79.3555 23.1867 78.4755 22.84C77.6088 22.48 76.9021 21.98 76.3555 21.34L78.1555 19.66C78.5021 20.1267 78.9621 20.5067 79.5355 20.8C80.1088 21.08 80.6821 21.22 81.2555 21.22C81.9355 21.22 82.5288 21.0467 83.0355 20.7C83.5555 20.3533 83.8155 19.8267 83.8155 19.12C83.8155 18.88 83.7821 18.6667 83.7155 18.48C83.6488 18.28 83.5221 18.1 83.3355 17.94C83.1621 17.78 83.0088 17.6533 82.8755 17.56C82.7421 17.4533 82.5021 17.34 82.1555 17.22C81.8221 17.0867 81.5821 16.9933 81.4355 16.94C81.2888 16.8867 80.9955 16.7933 80.5555 16.66C80.0488 16.5 79.6155 16.3333 79.2555 16.16C78.8955 15.9867 78.5221 15.7533 78.1355 15.46C77.7621 15.1533 77.4755 14.7667 77.2755 14.3C77.0755 13.82 76.9755 13.2667 76.9755 12.64C76.9755 11.2933 77.4821 10.2667 78.4955 9.56C79.5221 8.84 80.7421 8.48 82.1555 8.48C82.9021 8.48 83.6421 8.61333 84.3755 8.88C85.1221 9.13333 85.7555 9.50667 86.2755 10Z" fill="#009993"/>
<path d="M94.7398 23V21.78H94.6798C94.4398 22.2067 94.0465 22.56 93.4998 22.84C92.9665 23.1067 92.3665 23.24 91.6998 23.24C90.7798 23.24 89.9465 23 89.1998 22.52C88.4665 22.0267 88.0998 21.2733 88.0998 20.26C88.0998 19.7133 88.2332 19.24 88.4998 18.84C88.7798 18.4267 89.1265 18.1067 89.5398 17.88C89.9532 17.6533 90.4665 17.4733 91.0798 17.34C91.7065 17.1933 92.2932 17.1 92.8398 17.06C93.3998 17.02 94.0198 17 94.6998 17V16.76C94.6998 16.2 94.4932 15.7667 94.0798 15.46C93.6665 15.1533 93.1398 15 92.4998 15C91.4865 15 90.6132 15.3667 89.8798 16.1L88.6398 14.64C89.7332 13.6267 91.0865 13.12 92.6998 13.12C93.5265 13.12 94.2265 13.24 94.7998 13.48C95.3865 13.7067 95.8332 14.0267 96.1398 14.44C96.4465 14.84 96.6598 15.2667 96.7798 15.72C96.9132 16.16 96.9798 16.64 96.9798 17.16V23H94.7398ZM94.6998 18.96V18.62H94.1598C91.7198 18.62 90.4998 19.1533 90.4998 20.22C90.4998 20.6467 90.6598 20.9533 90.9798 21.14C91.3132 21.3267 91.7132 21.42 92.1798 21.42C92.9932 21.42 93.6132 21.2067 94.0398 20.78C94.4798 20.34 94.6998 19.7333 94.6998 18.96Z" fill="#009993"/>
<path d="M99.8159 23V7.88H102.216V23H99.8159Z" fill="#009993"/>
<path d="M106.967 17.24H111.887C111.887 16.5733 111.694 16.02 111.308 15.58C110.921 15.14 110.361 14.92 109.628 14.92C108.921 14.92 108.314 15.14 107.808 15.58C107.301 16.02 107.021 16.5733 106.967 17.24ZM114.287 18.32C114.287 18.6 114.281 18.8133 114.268 18.96H106.967C107.021 19.6267 107.314 20.1867 107.848 20.64C108.381 21.0933 109.001 21.32 109.708 21.32C110.814 21.32 111.661 20.9067 112.247 20.08L113.848 21.36C112.901 22.64 111.528 23.28 109.728 23.28C108.221 23.28 106.981 22.8267 106.007 21.92C105.047 21.0133 104.567 19.7933 104.567 18.26C104.567 16.7267 105.047 15.4867 106.007 14.54C106.967 13.5933 108.181 13.12 109.647 13.12C111.034 13.12 112.154 13.5667 113.007 14.46C113.861 15.3533 114.287 16.64 114.287 18.32Z" fill="#009993"/>
</svg>
