<svg width="100" height="20" viewBox="0 0 100 20" fill="none" xmlns="http://www.w3.org/2000/svg">
<path d="M10 1.52286L11.7646 6.59945C11.9019 6.99452 12.2706 7.2624 12.6888 7.27092L18.0622 7.38042L13.7794 10.6274C13.4461 10.8801 13.3053 11.3135 13.4264 11.7139L14.9827 16.8582L10.5712 13.7883C10.2279 13.5494 9.77214 13.5494 9.42882 13.7883L5.01726 16.8582L6.5736 11.7139C6.69472 11.3135 6.55389 10.8801 6.22059 10.6274L1.93776 7.38042L7.31119 7.27092C7.72936 7.2624 8.09805 6.99453 8.23538 6.59945L10 1.52286Z" stroke="#FFE700"/>
<path d="M30 1.52286L31.7646 6.59945C31.9019 6.99452 32.2706 7.2624 32.6888 7.27092L38.0622 7.38042L33.7794 10.6274C33.4461 10.8801 33.3053 11.3135 33.4264 11.7139L34.9827 16.8582L30.5712 13.7883C30.2279 13.5494 29.7721 13.5494 29.4288 13.7883L25.0173 16.8582L26.5736 11.7139C26.6947 11.3135 26.5539 10.8801 26.2206 10.6274L21.9378 7.38042L27.3112 7.27092C27.7294 7.2624 28.0981 6.99453 28.2354 6.59945L30 1.52286Z" stroke="#FFE700"/>
<path d="M50 1.52286L51.7646 6.59945C51.9019 6.99452 52.2706 7.2624 52.6888 7.27092L58.0622 7.38042L53.7794 10.6274C53.4461 10.8801 53.3053 11.3135 53.4264 11.7139L54.9827 16.8582L50.5712 13.7883C50.2279 13.5494 49.7721 13.5494 49.4288 13.7883L45.0173 16.8582L46.5736 11.7139C46.6947 11.3135 46.5539 10.8801 46.2206 10.6274L41.9378 7.38042L47.3112 7.27092C47.7294 7.2624 48.0981 6.99453 48.2354 6.59945L50 1.52286Z" stroke="#FFE700"/>
<path d="M70 1.52286L71.7646 6.59945C71.9019 6.99452 72.2706 7.2624 72.6888 7.27092L78.0622 7.38042L73.7794 10.6274C73.4461 10.8801 73.3053 11.3135 73.4264 11.7139L74.9827 16.8582L70.5712 13.7883C70.2279 13.5494 69.7721 13.5494 69.4288 13.7883L65.0173 16.8582L66.5736 11.7139C66.6947 11.3135 66.5539 10.8801 66.2206 10.6274L61.9378 7.38042L67.3112 7.27092C67.7294 7.2624 68.0981 6.99453 68.2354 6.59945L70 1.52286Z" stroke="#FFE700"/>
<path d="M90 1.52286L91.7646 6.59945C91.9019 6.99452 92.2706 7.2624 92.6888 7.27092L98.0622 7.38042L93.7794 10.6274C93.4461 10.8801 93.3053 11.3135 93.4264 11.7139L94.9827 16.8582L90.5712 13.7883C90.2279 13.5494 89.7721 13.5494 89.4288 13.7883L85.0173 16.8582L86.5736 11.7139C86.6947 11.3135 86.5539 10.8801 86.2206 10.6274L81.9378 7.38042L87.3112 7.27092C87.7294 7.2624 88.0981 6.99453 88.2354 6.59945L90 1.52286Z" stroke="#FFE700"/>
</svg>
