<svg width="100" height="20" viewBox="0 0 100 20" fill="none" xmlns="http://www.w3.org/2000/svg">
<path d="M9.52772 1.3587C9.68337 0.910915 10.3166 0.910914 10.4723 1.35869L12.2369 6.43529C12.3056 6.63282 12.4899 6.76676 12.699 6.77102L18.0724 6.88052C18.5464 6.89018 18.7421 7.49245 18.3643 7.77886L14.0815 11.0259C13.9148 11.1522 13.8444 11.3689 13.905 11.5691L15.4613 16.7134C15.5986 17.1671 15.0863 17.5393 14.6971 17.2686L10.2856 14.1987C10.1139 14.0793 9.88607 14.0793 9.71441 14.1987L5.30285 17.2686C4.91373 17.5393 4.40141 17.1671 4.53868 16.7134L6.09502 11.5691C6.15558 11.3689 6.08517 11.1522 5.91852 11.0259L1.63569 7.77886C1.25792 7.49245 1.45361 6.89018 1.92757 6.88052L7.301 6.77102C7.51009 6.76676 7.69443 6.63283 7.7631 6.43529L9.52772 1.3587Z" fill="#FFE700"/>
<path d="M29.5277 1.3587C29.6834 0.910915 30.3166 0.910914 30.4723 1.35869L32.2369 6.43529C32.3056 6.63282 32.4899 6.76676 32.699 6.77102L38.0724 6.88052C38.5464 6.89018 38.7421 7.49245 38.3643 7.77886L34.0815 11.0259C33.9148 11.1522 33.8444 11.3689 33.905 11.5691L35.4613 16.7134C35.5986 17.1671 35.0863 17.5393 34.6971 17.2686L30.2856 14.1987C30.1139 14.0793 29.8861 14.0793 29.7144 14.1987L25.3029 17.2686C24.9137 17.5393 24.4014 17.1671 24.5387 16.7134L26.095 11.5691C26.1556 11.3689 26.0852 11.1522 25.9185 11.0259L21.6357 7.77886C21.2579 7.49245 21.4536 6.89018 21.9276 6.88052L27.301 6.77102C27.5101 6.76676 27.6944 6.63283 27.7631 6.43529L29.5277 1.3587Z" fill="#FFE700"/>
<path d="M49.5277 1.3587C49.6834 0.910915 50.3166 0.910914 50.4723 1.35869L52.2369 6.43529C52.3056 6.63282 52.4899 6.76676 52.699 6.77102L58.0724 6.88052C58.5464 6.89018 58.7421 7.49245 58.3643 7.77886L54.0815 11.0259C53.9148 11.1522 53.8444 11.3689 53.905 11.5691L55.4613 16.7134C55.5986 17.1671 55.0863 17.5393 54.6971 17.2686L50.2856 14.1987C50.1139 14.0793 49.8861 14.0793 49.7144 14.1987L45.3029 17.2686C44.9137 17.5393 44.4014 17.1671 44.5387 16.7134L46.095 11.5691C46.1556 11.3689 46.0852 11.1522 45.9185 11.0259L41.6357 7.77886C41.2579 7.49245 41.4536 6.89018 41.9276 6.88052L47.301 6.77102C47.5101 6.76676 47.6944 6.63283 47.7631 6.43529L49.5277 1.3587Z" fill="#FFE700"/>
<path d="M69.5277 1.3587C69.6834 0.910915 70.3166 0.910914 70.4723 1.35869L72.2369 6.43529C72.3056 6.63282 72.4899 6.76676 72.699 6.77102L78.0724 6.88052C78.5464 6.89018 78.7421 7.49245 78.3643 7.77886L74.0815 11.0259C73.9148 11.1522 73.8444 11.3689 73.905 11.5691L75.4613 16.7134C75.5986 17.1671 75.0863 17.5393 74.6971 17.2686L70.2856 14.1987C70.1139 14.0793 69.8861 14.0793 69.7144 14.1987L65.3029 17.2686C64.9137 17.5393 64.4014 17.1671 64.5387 16.7134L66.095 11.5691C66.1556 11.3689 66.0852 11.1522 65.9185 11.0259L61.6357 7.77886C61.2579 7.49245 61.4536 6.89018 61.9276 6.88052L67.301 6.77102C67.5101 6.76676 67.6944 6.63283 67.7631 6.43529L69.5277 1.3587Z" fill="#FFE700"/>
<path d="M89.5277 1.3587C89.6834 0.910915 90.3166 0.910914 90.4723 1.35869L92.2369 6.43529C92.3056 6.63282 92.4899 6.76676 92.699 6.77102L98.0724 6.88052C98.5464 6.89018 98.7421 7.49245 98.3643 7.77886L94.0815 11.0259C93.9148 11.1522 93.8444 11.3689 93.905 11.5691L95.4613 16.7134C95.5986 17.1671 95.0863 17.5393 94.6971 17.2686L90.2856 14.1987C90.1139 14.0793 89.8861 14.0793 89.7144 14.1987L85.3029 17.2686C84.9137 17.5393 84.4014 17.1671 84.5387 16.7134L86.095 11.5691C86.1556 11.3689 86.0852 11.1522 85.9185 11.0259L81.6357 7.77886C81.2579 7.49245 81.4536 6.89018 81.9276 6.88052L87.301 6.77102C87.5101 6.76676 87.6944 6.63283 87.7631 6.43529L89.5277 1.3587Z" fill="#FFE700"/>
</svg>
